<?xml version="1.0" encoding="UTF-8" standalone="no"?>
<!-- Created with Inkscape (http://www.inkscape.org/) -->

<svg
   width="367.37296mm"
   height="56.88018mm"
   viewBox="0 0 367.37297 56.88018"
   version="1.1"
   id="svg1"
   xml:space="preserve"
   xmlns="http://www.w3.org/2000/svg"
   xmlns:svg="http://www.w3.org/2000/svg"><defs
     id="defs1" /><g
     id="layer1"
     transform="translate(1893.1437,-2093.1401)"><path
       id="text56"
       style="font-style:normal;font-variant:normal;font-weight:300;font-stretch:normal;font-size:31.75px;line-height:31.75px;font-family:Muslimah;-inkscape-font-specification:'Muslimah Light';text-align:center;text-decoration-color:#000000;letter-spacing:0px;writing-mode:lr-tb;direction:rtl;text-anchor:middle;white-space:pre;inline-size:448.465;fill:#e6e6e6;stroke-width:5.67881;stroke-dashoffset:8"
       d="m -1195.028,1315.0409 c -0.217,0 -0.3255,0.052 -0.3255,0.155 0,0.093 0.155,0.155 0.465,0.186 l 0.1706,0.015 0.186,0.015 c 0.124,0.01 0.2067,0.021 0.2481,0.031 0.4134,0.124 0.6407,0.496 0.6821,1.1162 0.01,0.052 0.015,1.6484 0.015,4.7904 v 4.7904 l 0.031,6.6042 c 0,1.7363 -0.1964,3.0696 -0.5891,3.9998 -0.4961,1.1575 -1.3643,1.9327 -2.6045,2.3254 -0.3824,0.124 -0.7907,0.1861 -1.2247,0.1861 -1.3333,0 -2.3668,-0.3514 -3.1006,-1.0542 -1.0336,-0.9922 -1.5503,-2.7079 -1.5503,-5.147 v -0.031 c 0,-0.093 0.01,-0.2636 0.015,-0.5116 v -3.2866 c 0,-0.8992 0.067,-1.4728 0.2015,-1.7209 0.1551,-0.31 0.522,-0.4651 1.1007,-0.4651 0.041,0 0.078,-0.01 0.1086,-0.031 0.041,-0.021 0.062,-0.046 0.062,-0.078 0,-0.1137 -0.1086,-0.1705 -0.3256,-0.1705 h -4.4028 c -0.2171,0 -0.3256,0.047 -0.3256,0.1395 0,0.083 0.093,0.1344 0.2791,0.155 0.062,0.01 0.1343,0.015 0.217,0.015 h 0.155 c 0.5065,0 0.8269,0.1447 0.9612,0.4341 0.1034,0.2377 0.155,0.8114 0.155,1.7209 l 0.015,3.9532 c 0.01,2.4288 0.5581,4.1961 1.6434,5.302 1.0025,1.0335 2.5269,1.5503 4.5733,1.5503 0.5478,0 1.0904,-0.072 1.6278,-0.217 0.6615,-0.1757 1.2506,-0.4445 1.7674,-0.8062 1.3435,-0.9302 2.1445,-2.3823 2.4029,-4.3563 0.8372,0.8992 2.0981,1.4159 3.7827,1.5503 h 16.6037 c 1.912,0 3.5295,-0.6977 4.8524,-2.0929 1.3022,-1.3849 1.9534,-3.0644 1.9534,-5.0385 0,-1.9843 -0.6873,-3.5811 -2.0619,-4.7904 -1.3023,-1.1472 -2.9353,-1.7208 -4.899,-1.7208 l -7.2863,0.031 c -0.6925,0 -1.4005,0.2274 -2.1239,0.6821 -0.5788,0.3514 -1.1576,0.8424 -1.7364,1.4728 0,-0.8165 0.052,-1.3281 0.1551,-1.5348 0.124,-0.2687 0.4444,-0.4031 0.9611,-0.4031 0.083,-0.01 0.1241,-0.041 0.1241,-0.093 0,-0.041 -0.026,-0.083 -0.077,-0.124 -0.062,-0.041 -0.1292,-0.062 -0.2016,-0.062 h -3.8447 c -0.2067,0 -0.3101,0.062 -0.3101,0.186 0,0.052 0.052,0.083 0.1551,0.093 0.4444,0 0.7596,0.052 0.9456,0.1551 0.2584,0.155 0.3979,0.4444 0.4186,0.8681 0.021,0.3514 0.031,2.0878 0.031,5.209 v 6.4647 h -3.6587 v 0.015 c -1.6123,-0.1136 -2.6768,-0.8888 -3.1936,-2.3254 -0.1963,-0.5374 -0.3204,-1.1886 -0.372,-1.9534 -0.021,-0.2894 -0.036,-0.6149 -0.047,-0.9766 v -2.465 l -0.015,-1.5658 c 0,-1.757 0.01,-3.8861 0.015,-6.3872 v -3.2866 c 0,-0.8165 0.4186,-1.2248 1.2558,-1.2248 0.1137,0 0.1705,-0.046 0.1705,-0.1395 0,-0.1033 -0.1085,-0.155 -0.3255,-0.155 z m -178.8573,0.031 c -0.1964,0 -0.2945,0.047 -0.2945,0.1395 0,0.1034 0.1447,0.1654 0.434,0.186 h 0.1706 l 0.155,0.015 c 0.1137,0 0.186,0.01 0.217,0.031 0.2791,0.155 0.4496,0.3927 0.5116,0.7131 0.031,0.124 0.047,0.279 0.047,0.4651 v 0.5116 c 0,3.917 0.01,7.0848 0.015,9.5033 v 3.4261 c 0,1.509 -0.1912,2.6717 -0.5737,3.4882 -0.5787,1.2092 -1.5968,1.8655 -3.054,1.9688 v -0.015 c -1.0026,-0.041 -1.7829,-0.3514 -2.341,-0.9301 -1.0438,-1.0646 -2.4804,-2.7544 -4.3098,-5.0695 -2.2014,-2.7905 -4.3718,-4.6457 -6.5112,-5.5655 -1.1782,-0.5065 -2.4081,-0.863 -3.6897,-1.0697 -0.4961,-0.072 -0.9922,-0.1292 -1.4883,-0.1706 -0.3721,-0.021 -0.7493,-0.031 -1.1317,-0.031 -0.155,0 -0.2326,0.062 -0.2326,0.1861 0,0.1033 0.1189,0.155 0.3566,0.155 1.4056,0.093 2.6872,0.3824 3.8447,0.8681 0.1447,0.062 0.2843,0.1241 0.4186,0.1861 0.1964,0.093 0.3876,0.1912 0.5736,0.2945 0.5065,0.2791 1.0181,0.5995 1.5348,0.9612 1.447,1.0232 2.8474,2.3255 4.2013,3.9068 3.0903,3.6586 4.9506,5.7515 5.5811,6.2786 h -17.6734 c -1.0025,-0.041 -1.7828,-0.3514 -2.3409,-0.9301 -1.0439,-1.0646 -2.4805,-2.7544 -4.3098,-5.0695 -2.2014,-2.7905 -4.3719,-4.6457 -6.5113,-5.5655 -1.1782,-0.5065 -2.4081,-0.863 -3.6897,-1.0697 -0.4961,-0.072 -0.9921,-0.1292 -1.4882,-0.1706 -0.3721,-0.021 -0.7493,-0.031 -1.1318,-0.031 -0.155,0 -0.2325,0.062 -0.2325,0.1861 0,0.1033 0.1189,0.155 0.3566,0.155 1.4056,0.093 2.6871,0.3824 3.8447,0.8681 0.1447,0.062 0.2842,0.1241 0.4186,0.1861 0.1963,0.093 0.3875,0.1912 0.5736,0.2945 0.5064,0.2791 1.018,0.5995 1.5348,0.9612 1.4469,1.0232 2.8473,2.3255 4.2013,3.9068 3.0902,3.6586 4.9506,5.7515 5.581,6.2786 h -17.6733 c -1.6433,-0.083 -2.7182,-0.8888 -3.2246,-2.4184 -0.1964,-0.5581 -0.3204,-1.2402 -0.3721,-2.0464 -0.021,-0.2997 -0.031,-0.6408 -0.031,-1.0232 v -0.9147 c 0,-1.9327 -0.6356,-3.5036 -1.9069,-4.7129 -1.3125,-1.2402 -3.054,-1.8603 -5.2245,-1.8603 -2.2944,0 -4.1186,0.7803 -5.4725,2.3409 -1.1369,1.3126 -1.7053,2.8061 -1.7053,4.4804 0,1.726 0.5271,3.2246 1.5813,4.4958 1.2816,1.571 3.1109,2.3565 5.488,2.3565 2.2738,0 4.1393,-0.8217 5.5966,-2.465 0,1.3126 -0.1292,2.4081 -0.3876,3.2866 -0.3824,1.2506 -1.0387,2.1343 -1.9689,2.651 0.3308,0.031 0.7287,-0.093 1.1938,-0.372 0.4651,-0.2688 0.9043,-0.646 1.3177,-1.1318 1.0129,-1.1575 1.4883,-2.4029 1.4263,-3.7362 0.9095,1.0439 2.1394,1.633 3.6897,1.7674 h 20.8669 20.867 c 2.1807,-0.1654 3.6638,-0.9922 4.4493,-2.4805 0.7648,1.4883 2.2428,2.3151 4.4338,2.4805 2.5942,-0.2067 4.2168,-1.385 4.868,-3.5347 0.248,-0.7958 0.3875,-1.8345 0.4185,-3.1161 0.01,-0.4341 0.01,-0.9922 0,-1.6743 l -0.015,-0.8372 v -10.3404 c 0,-0.5271 0.062,-0.8785 0.1861,-1.0542 0.1447,-0.1964 0.4496,-0.2946 0.9147,-0.2946 0.031,0 0.062,-0.015 0.093,-0.046 0.031,-0.031 0.046,-0.062 0.046,-0.093 0,-0.093 -0.093,-0.1395 -0.2791,-0.1395 h -3.8602 c -0.1964,0 -0.2946,0.047 -0.2946,0.1395 0,0.072 0.1292,0.124 0.3876,0.155 l 0.155,0.015 0.1551,0.015 c 0.1033,0.01 0.1705,0.021 0.2015,0.031 0.2894,0.072 0.4703,0.2429 0.5426,0.5116 0.052,0.1757 0.078,0.5737 0.078,1.1938 0.01,0.072 0.015,1.4159 0.015,4.0307 v 8.8987 c 0,1.509 -0.1912,2.6717 -0.5736,3.4882 -0.5684,1.2092 -1.5813,1.8655 -3.0386,1.9688 -1.4572,-0.1033 -2.4701,-0.7596 -3.0385,-1.9688 -0.3824,-0.8062 -0.5736,-1.9689 -0.5736,-3.4882 v -12.9294 c 0,-0.7442 0.062,-1.2144 0.186,-1.4108 0.1654,-0.248 0.5684,-0.3721 1.2092,-0.3721 0.031,0 0.062,-0.015 0.093,-0.046 0.031,-0.031 0.047,-0.062 0.047,-0.093 0,-0.093 -0.098,-0.1395 -0.2946,-0.1395 z m 20.2003,0 c -0.186,0 -0.279,0.047 -0.279,0.1395 0,0.062 0.1395,0.124 0.4186,0.186 l 0.1705,0.031 0.155,0.047 c 0.1137,0.021 0.1861,0.047 0.2171,0.078 0.186,0.1653 0.279,0.6924 0.279,1.5813 v 11.0381 c 0,2.5011 0.2377,4.2684 0.7132,5.302 0.7441,1.6329 2.2634,2.5424 4.5578,2.7285 2.1704,-0.1654 3.6432,-0.987 4.4183,-2.465 0.8062,1.478 2.2893,2.2996 4.4494,2.465 2.3978,-0.1964 3.9532,-1.1834 4.6664,-2.9611 0.279,-0.7028 0.4599,-1.5968 0.5426,-2.682 0.031,-0.4134 0.052,-0.9043 0.062,-1.4728 v -5.2555 c 0,-0.5271 0.2067,-0.8423 0.6201,-0.9456 0.062,-0.021 0.1395,-0.036 0.2325,-0.047 l 0.093,-0.015 0.1085,-0.015 c 0.124,-0.021 0.186,-0.062 0.186,-0.124 0,-0.1033 -0.098,-0.155 -0.2945,-0.155 -0.4445,0 -1.1162,0.01 -2.0154,0.015 l -2.0464,0.015 c -0.062,0.031 -0.093,0.072 -0.093,0.124 0,0.072 0.026,0.1137 0.078,0.124 0.062,0.021 0.2274,0.031 0.4961,0.031 0.3927,0 0.6666,0.1447 0.8216,0.4341 0.1034,0.1964 0.1551,0.491 0.1551,0.8837 v 5.8911 c 0,1.1782 -0.088,2.0877 -0.2636,2.7285 -0.2687,0.9612 -0.7751,1.6743 -1.5193,2.1394 -0.6097,0.3824 -1.2195,0.5788 -1.8293,0.5891 -0.6511,-0.021 -1.2661,-0.217 -1.8449,-0.5891 -0.7441,-0.4651 -1.2505,-1.1679 -1.5192,-2.1084 -0.1757,-0.6408 -0.2636,-1.5606 -0.2636,-2.7595 0.021,-3.8964 0.031,-5.9169 0.031,-6.0616 0,-0.3411 0.052,-0.5995 0.155,-0.7752 0.1447,-0.248 0.4134,-0.3721 0.8062,-0.3721 h 0.1085 c 0.072,0 0.1395,-0.01 0.2015,-0.015 0.1757,-0.031 0.2636,-0.078 0.2636,-0.1395 0,-0.1033 -0.098,-0.155 -0.2946,-0.155 h -4.1547 c -0.1964,0 -0.2946,0.052 -0.2946,0.155 0,0.1034 0.1912,0.155 0.5736,0.155 0.3928,0 0.6615,0.1292 0.8062,0.3876 0.1033,0.1861 0.155,0.5013 0.155,0.9457 v 5.8291 c -0.01,0.6615 -0.057,1.2506 -0.1395,1.7673 -0.1034,0.6822 -0.2688,1.2661 -0.4961,1.7519 -0.5788,1.2505 -1.5658,1.912 -2.9611,1.9843 v 0.015 c -1.4676,-0.1033 -2.4805,-0.7596 -3.0386,-1.9688 -0.2273,-0.4754 -0.3875,-1.0491 -0.4806,-1.7209 -0.062,-0.4857 -0.093,-1.0748 -0.093,-1.7673 0,-0.8785 0.01,-3.0541 0.015,-6.5267 0.01,-3.4623 0.015,-5.855 0.015,-7.1779 0,-0.372 0.088,-0.6304 0.2636,-0.7751 0.1964,-0.1551 0.5581,-0.2326 1.0852,-0.2326 0.041,0 0.077,-0.015 0.1085,-0.046 0.031,-0.031 0.047,-0.062 0.047,-0.093 0,-0.093 -0.098,-0.1395 -0.2945,-0.1395 z m 24.4637,0 c -0.1861,0 -0.2791,0.047 -0.2791,0.1395 0,0.062 0.1395,0.124 0.4186,0.186 l 0.1705,0.031 0.155,0.047 c 0.1137,0.021 0.1861,0.047 0.2171,0.078 0.186,0.1653 0.279,0.6924 0.279,1.5813 v 11.0381 c 0,2.5011 0.2378,4.2684 0.7132,5.302 0.7441,1.6329 2.2634,2.5424 4.5578,2.7285 h 20.867 22.8978 16.6036 c 1.9121,0 3.5295,-0.6977 4.8525,-2.0929 1.3022,-1.3849 1.9533,-3.0644 1.9533,-5.0385 0,-1.9843 -0.6873,-3.5811 -2.0619,-4.7904 -1.3022,-1.1472 -2.9352,-1.7208 -4.8989,-1.7208 l -7.2864,0.031 c -0.6924,0 -1.4004,0.2274 -2.1239,0.6821 -0.5787,0.3514 -1.1575,0.8424 -1.7363,1.4728 0,-0.8165 0.052,-1.3281 0.155,-1.5348 0.1241,-0.2687 0.4445,-0.4031 0.9612,-0.4031 0.083,-0.01 0.124,-0.041 0.124,-0.093 0,-0.041 -0.026,-0.083 -0.078,-0.124 -0.062,-0.041 -0.1292,-0.062 -0.2015,-0.062 h -3.8447 c -0.2067,0 -0.3101,0.062 -0.3101,0.186 0,0.052 0.052,0.083 0.155,0.093 0.4445,0 0.7597,0.052 0.9457,0.1551 0.2584,0.155 0.3979,0.4444 0.4186,0.8681 0.021,0.3514 0.031,2.0878 0.031,5.209 v 6.4647 h -3.6587 -8.2941 c 1.2713,-0.5581 2.2635,-1.4469 2.9766,-2.6665 0.6821,-1.1472 1.0232,-2.4081 1.0232,-3.7827 0,-2.0257 -0.6976,-3.638 -2.0929,-4.8369 -1.3229,-1.1369 -3.0024,-1.7053 -5.0385,-1.7053 -2.3977,0 -4.2633,0.8371 -5.5965,2.5115 -1.0542,1.3125 -1.5813,2.7543 -1.5813,4.3253 0,1.2195 0.2842,2.3513 0.8527,3.3951 0.6614,1.2093 1.6226,2.1291 2.8835,2.7595 h -8.0305 c -1.0025,-0.041 -1.7829,-0.3514 -2.341,-0.9301 -1.0438,-1.0646 -2.4804,-2.7544 -4.3098,-5.0695 -2.2014,-2.7905 -4.3718,-4.6457 -6.5112,-5.5655 -1.1782,-0.5065 -2.4081,-0.863 -3.6897,-1.0697 -0.4961,-0.072 -0.9922,-0.1292 -1.4883,-0.1706 -0.3721,-0.021 -0.7493,-0.031 -1.1317,-0.031 -0.155,0 -0.2325,0.062 -0.2325,0.1861 0,0.1033 0.1188,0.155 0.3565,0.155 1.4056,0.093 2.6872,0.3824 3.8447,0.8681 0.1447,0.062 0.2843,0.1241 0.4186,0.1861 0.1964,0.093 0.3876,0.1912 0.5736,0.2945 0.5065,0.2791 1.0181,0.5995 1.5348,0.9612 1.447,1.0232 2.8474,2.3255 4.2013,3.9068 3.0903,3.6586 4.9506,5.7515 5.5811,6.2786 h -17.6734 v 0.015 c -1.4676,-0.1033 -2.4804,-0.7596 -3.0385,-1.9688 -0.2274,-0.4754 -0.3876,-1.0491 -0.4806,-1.7209 -0.062,-0.4857 -0.093,-1.0748 -0.093,-1.7673 0,-0.8785 0.01,-3.0541 0.015,-6.5267 0.01,-3.4623 0.015,-5.855 0.015,-7.1779 0,-0.372 0.088,-0.6304 0.2635,-0.7751 0.1964,-0.1551 0.5581,-0.2326 1.0852,-0.2326 0.041,0 0.078,-0.015 0.1085,-0.046 0.031,-0.031 0.046,-0.062 0.046,-0.093 0,-0.093 -0.098,-0.1395 -0.2945,-0.1395 z m 200.9954,0 c -0.1963,0 -0.2945,0.047 -0.2945,0.1395 0,0.1034 0.1447,0.1654 0.4341,0.186 h 0.1705 l 0.155,0.015 c 0.1137,0 0.1861,0.01 0.2171,0.031 0.279,0.155 0.4496,0.3927 0.5116,0.7131 0.031,0.124 0.046,0.279 0.046,0.4651 v 0.5116 c 0,3.917 0.01,7.0848 0.015,9.5033 v 3.4261 c 0,1.509 -0.1912,2.6717 -0.5736,3.4882 -0.5788,1.2092 -1.5968,1.8655 -3.0541,1.9688 v -0.015 c -0.6511,-0.021 -1.2661,-0.217 -1.8449,-0.5891 -0.7441,-0.4651 -1.2505,-1.1679 -1.5192,-2.1084 -0.1757,-0.6408 -0.2636,-1.5606 -0.2636,-2.7595 0.021,-3.8964 0.031,-5.9169 0.031,-6.0616 0,-0.3411 0.052,-0.5995 0.155,-0.7752 0.1447,-0.248 0.4135,-0.3721 0.8062,-0.3721 h 0.1085 c 0.072,0 0.1395,-0.01 0.2016,-0.015 0.1757,-0.031 0.2635,-0.078 0.2635,-0.1395 0,-0.1033 -0.098,-0.155 -0.2946,-0.155 h -4.1547 c -0.1964,0 -0.2946,0.052 -0.2946,0.155 0,0.1034 0.1912,0.155 0.5736,0.155 0.3928,0 0.6615,0.1292 0.8062,0.3876 0.1033,0.1861 0.155,0.5013 0.155,0.9457 v 5.8291 c -0.01,0.6615 -0.057,1.2506 -0.1395,1.7673 -0.1034,0.6822 -0.2687,1.2661 -0.4961,1.7519 -0.5788,1.2505 -1.5658,1.912 -2.9611,1.9843 -1.6433,-0.083 -2.7182,-0.8888 -3.2246,-2.4184 -0.1964,-0.5581 -0.3204,-1.2402 -0.3721,-2.0464 -0.021,-0.2997 -0.031,-0.6408 -0.031,-1.0232 v -0.9147 c 0,-1.9327 -0.6356,-3.5036 -1.9068,-4.7129 -1.3126,-1.2402 -3.0541,-1.8603 -5.2245,-1.8603 -2.2945,0 -4.1186,0.7803 -5.4726,2.3409 -1.1368,1.3126 -1.7053,2.8061 -1.7053,4.4804 0,1.726 0.5271,3.2246 1.5813,4.4958 1.2816,1.571 3.1109,2.3565 5.4881,2.3565 2.2737,0 4.1392,-0.8217 5.5965,-2.465 0,1.3126 -0.1292,2.4081 -0.3876,3.2866 -0.3824,1.2506 -1.0386,2.1343 -1.9688,2.651 0.3307,0.031 0.7286,-0.093 1.1937,-0.372 0.4651,-0.2688 0.9043,-0.646 1.3177,-1.1318 1.0129,-1.1575 1.4883,-2.4029 1.4263,-3.7362 0.9095,1.0439 2.1394,1.633 3.6897,1.7674 2.1704,-0.1654 3.6432,-0.987 4.4184,-2.465 0.8061,1.478 2.2892,2.2996 4.4493,2.465 2.1807,-0.1654 3.6639,-0.9922 4.4493,-2.4805 0.7648,1.4883 2.2428,2.3151 4.4339,2.4805 2.5941,-0.2067 4.2168,-1.385 4.8679,-3.5347 0.248,-0.7958 0.3876,-1.8345 0.4186,-3.1161 0.01,-0.4341 0.01,-0.9922 0,-1.6743 l -0.015,-0.8372 v -10.3404 c 0,-0.5271 0.062,-0.8785 0.186,-1.0542 0.1447,-0.1964 0.4496,-0.2946 0.9147,-0.2946 0.031,0 0.062,-0.015 0.093,-0.046 0.031,-0.031 0.046,-0.062 0.046,-0.093 0,-0.093 -0.093,-0.1395 -0.2791,-0.1395 h -3.8602 c -0.1964,0 -0.2945,0.047 -0.2945,0.1395 0,0.072 0.1292,0.124 0.3875,0.155 l 0.1551,0.015 0.155,0.015 c 0.1033,0.01 0.1705,0.021 0.2015,0.031 0.2894,0.072 0.4703,0.2429 0.5426,0.5116 0.052,0.1757 0.078,0.5737 0.078,1.1938 0.01,0.072 0.015,1.4159 0.015,4.0307 v 8.8987 c 0,1.509 -0.1912,2.6717 -0.5737,3.4882 -0.5684,1.2092 -1.5813,1.8655 -3.0385,1.9688 -1.4573,-0.1033 -2.4702,-0.7596 -3.0386,-1.9688 -0.3824,-0.8062 -0.5736,-1.9689 -0.5736,-3.4882 v -12.9294 c 0,-0.7442 0.062,-1.2144 0.186,-1.4108 0.1654,-0.248 0.5685,-0.3721 1.2093,-0.3721 0.031,0 0.062,-0.015 0.093,-0.046 0.031,-0.031 0.047,-0.062 0.047,-0.093 0,-0.093 -0.098,-0.1395 -0.2946,-0.1395 z m -318.9417,0.015 c -0.083,0 -0.1499,0.021 -0.2016,0.062 -0.052,0.041 -0.077,0.083 -0.077,0.124 0,0.062 0.046,0.093 0.1395,0.093 0.3824,0.01 0.6512,0.083 0.8062,0.2171 0.1757,0.1447 0.2687,0.4082 0.279,0.7906 l 0.015,18.185 c -0.021,0.4961 -0.088,0.832 -0.2015,1.0077 -0.155,0.217 -0.4547,0.3307 -0.8992,0.341 -0.093,0.01 -0.1395,0.047 -0.1395,0.1085 0,0.041 0.026,0.083 0.077,0.1241 0.052,0.041 0.1189,0.062 0.2016,0.062 h 3.8602 c 0.083,0 0.1499,-0.021 0.2015,-0.062 0.052,-0.041 0.078,-0.083 0.078,-0.1241 0,-0.062 -0.047,-0.098 -0.1396,-0.1085 -0.5684,-0.01 -0.9302,-0.098 -1.0852,-0.2635 -0.1964,-0.2171 -0.2945,-0.7235 -0.2945,-1.5193 -0.021,-11.0898 -0.01,-17.0067 0.031,-17.7509 0.021,-0.4341 0.155,-0.7183 0.403,-0.8526 0.1654,-0.093 0.4806,-0.1447 0.9457,-0.1551 0.093,0 0.1396,-0.031 0.1396,-0.093 0,-0.041 -0.026,-0.083 -0.078,-0.124 -0.052,-0.041 -0.1188,-0.062 -0.2015,-0.062 z m 284.0136,0 c -0.083,0 -0.1498,0.021 -0.2015,0.062 -0.052,0.041 -0.078,0.083 -0.078,0.124 0,0.062 0.046,0.093 0.1395,0.093 0.3824,0.01 0.6511,0.083 0.8062,0.2171 0.1757,0.1447 0.2687,0.4082 0.279,0.7906 l 0.015,18.185 c -0.021,0.4961 -0.088,0.832 -0.2015,1.0077 -0.155,0.217 -0.4548,0.3307 -0.8992,0.341 -0.093,0.01 -0.1395,0.047 -0.1395,0.1085 0,0.041 0.026,0.083 0.078,0.1241 0.052,0.041 0.1189,0.062 0.2015,0.062 h 3.8603 c 0.083,0 0.1498,-0.021 0.2015,-0.062 0.052,-0.041 0.078,-0.083 0.078,-0.1241 0,-0.062 -0.047,-0.098 -0.1395,-0.1085 -0.5684,-0.01 -0.9302,-0.098 -1.0852,-0.2635 -0.1964,-0.2171 -0.2946,-0.7235 -0.2946,-1.5193 -0.021,-11.0898 -0.01,-17.0067 0.031,-17.7509 0.021,-0.4341 0.1551,-0.7183 0.4031,-0.8526 0.1654,-0.093 0.4806,-0.1447 0.9457,-0.1551 0.093,0 0.1395,-0.031 0.1395,-0.093 0,-0.041 -0.026,-0.083 -0.078,-0.124 -0.052,-0.041 -0.1188,-0.062 -0.2015,-0.062 z m -301.5009,2.6975 c -0.3721,0 -0.6925,0.1344 -0.9612,0.4031 -0.2687,0.2687 -0.4031,0.5891 -0.4031,0.9612 0,0.3824 0.1344,0.7079 0.4031,0.9766 0.2687,0.2584 0.5891,0.3876 0.9612,0.3876 0.3824,0 0.7028,-0.1292 0.9611,-0.3876 0.2688,-0.2687 0.4031,-0.5942 0.4031,-0.9766 0,-0.3825 -0.1343,-0.7028 -0.4031,-0.9612 -0.2583,-0.2687 -0.5787,-0.4031 -0.9611,-0.4031 z m 3.3331,0 c -0.3824,0 -0.7028,0.1344 -0.9612,0.4031 -0.2687,0.2584 -0.4031,0.5787 -0.4031,0.9612 0,0.3824 0.1344,0.7079 0.4031,0.9766 0.2584,0.2584 0.5788,0.3876 0.9612,0.3876 0.3721,0 0.6925,-0.1292 0.9612,-0.3876 0.2687,-0.2687 0.4031,-0.5942 0.4031,-0.9766 0,-0.3721 -0.1344,-0.6925 -0.4031,-0.9612 -0.2687,-0.2687 -0.5891,-0.4031 -0.9612,-0.4031 z m 21.7196,0 c -0.3824,0 -0.708,0.1344 -0.9767,0.4031 -0.2584,0.2687 -0.3876,0.5891 -0.3876,0.9612 0,0.3824 0.1292,0.7028 0.3876,0.9611 0.2687,0.2688 0.5943,0.4031 0.9767,0.4031 0.3824,0 0.7028,-0.1343 0.9612,-0.4031 0.2687,-0.2583 0.4031,-0.5787 0.4031,-0.9611 0,-0.3721 -0.1344,-0.6925 -0.4031,-0.9612 -0.2687,-0.2687 -0.5891,-0.4031 -0.9612,-0.4031 z m 96.5832,0 c -0.3824,0 -0.7079,0.1344 -0.9766,0.4031 -0.2584,0.2687 -0.3876,0.5891 -0.3876,0.9612 0,0.3824 0.1292,0.7028 0.3876,0.9611 0.2687,0.2688 0.5942,0.4031 0.9766,0.4031 0.3825,0 0.7028,-0.1343 0.9612,-0.4031 0.2687,-0.2583 0.4031,-0.5787 0.4031,-0.9611 0,-0.3721 -0.1344,-0.6925 -0.4031,-0.9612 -0.2687,-0.2687 -0.5891,-0.4031 -0.9612,-0.4031 z m 7.2244,0 c -0.3721,0 -0.6924,0.1344 -0.9612,0.4031 -0.2687,0.2687 -0.403,0.5891 -0.403,0.9612 0,0.3824 0.1343,0.7079 0.403,0.9766 0.2688,0.2584 0.5891,0.3876 0.9612,0.3876 0.3824,0 0.7028,-0.1292 0.9612,-0.3876 0.2687,-0.2687 0.4031,-0.5942 0.4031,-0.9766 0,-0.3825 -0.1344,-0.7028 -0.4031,-0.9612 -0.2584,-0.2687 -0.5788,-0.4031 -0.9612,-0.4031 z m 3.3331,0 c -0.3824,0 -0.7028,0.1344 -0.9611,0.4031 -0.2688,0.2584 -0.4031,0.5787 -0.4031,0.9612 0,0.3824 0.1343,0.7079 0.4031,0.9766 0.2583,0.2584 0.5787,0.3876 0.9611,0.3876 0.3721,0 0.6925,-0.1292 0.9612,-0.3876 0.2687,-0.2687 0.4031,-0.5942 0.4031,-0.9766 0,-0.3721 -0.1344,-0.6925 -0.4031,-0.9612 -0.2687,-0.2687 -0.5891,-0.4031 -0.9612,-0.4031 z m 41.7959,0 c -0.3824,0 -0.7079,0.1344 -0.9766,0.4031 -0.2584,0.2687 -0.3876,0.5891 -0.3876,0.9612 0,0.3824 0.1292,0.7028 0.3876,0.9611 0.2687,0.2688 0.5942,0.4031 0.9766,0.4031 0.3824,0 0.7028,-0.1343 0.9612,-0.4031 0.2687,-0.2583 0.4031,-0.5787 0.4031,-0.9611 0,-0.3721 -0.1344,-0.6925 -0.4031,-0.9612 -0.2687,-0.2687 -0.5891,-0.4031 -0.9612,-0.4031 z m 153.9906,0 c -0.372,0 -0.6924,0.1344 -0.9611,0.4031 -0.2688,0.2687 -0.4031,0.5891 -0.4031,0.9612 0,0.3824 0.1343,0.7079 0.4031,0.9766 0.2687,0.2584 0.5891,0.3876 0.9611,0.3876 0.3824,0 0.7028,-0.1292 0.9612,-0.3876 0.2687,-0.2687 0.4031,-0.5942 0.4031,-0.9766 0,-0.3825 -0.1344,-0.7028 -0.4031,-0.9612 -0.2584,-0.2687 -0.5788,-0.4031 -0.9612,-0.4031 z m 3.3332,0 c -0.3824,0 -0.7028,0.1344 -0.9612,0.4031 -0.2687,0.2584 -0.4031,0.5787 -0.4031,0.9612 0,0.3824 0.1344,0.7079 0.4031,0.9766 0.2584,0.2584 0.5788,0.3876 0.9612,0.3876 0.372,0 0.6924,-0.1292 0.9612,-0.3876 0.2687,-0.2687 0.403,-0.5942 0.403,-0.9766 0,-0.3721 -0.1343,-0.6925 -0.403,-0.9612 -0.2688,-0.2687 -0.5892,-0.4031 -0.9612,-0.4031 z m -304.4621,4.7284 c -0.4547,0 -1.1317,0.01 -2.0308,0.015 l -1.0232,0.015 h -1.0077 c -0.041,0.021 -0.062,0.062 -0.062,0.124 0,0.1034 0.1136,0.1602 0.341,0.1705 l 0.1395,0.016 h 0.1241 c 0.083,0 0.1343,0.01 0.155,0.015 0.2997,0 0.5168,0.1602 0.6511,0.4805 0.052,0.1241 0.088,0.2688 0.1085,0.4341 0.021,0.1344 0.031,0.2739 0.031,0.4186 v 1.3178 c -0.01,0.1447 -0.016,0.279 -0.016,0.403 v 0.9457 c -0.01,1.8707 -0.015,3.7931 -0.015,5.7671 0,2.3358 -0.186,3.9791 -0.5581,4.9299 -0.2997,0.7442 -0.9715,1.5348 -2.0153,2.372 1.0025,-0.3204 1.85,-0.832 2.5424,-1.5348 0.6925,-0.7028 1.1576,-1.5141 1.3953,-2.434 0.1964,-0.7441 0.2946,-2.2582 0.2946,-4.5423 v -1.9224 c -0.01,-0.8682 -0.016,-1.5141 -0.016,-1.9379 v -3.3951 c 0,-0.9095 0.3514,-1.3643 1.0542,-1.3643 0.124,0 0.186,-0.052 0.186,-0.155 0,-0.093 -0.093,-0.1395 -0.2791,-0.1395 z m 192.4999,0 c -0.4444,0 -1.1162,0.01 -2.0154,0.015 l -2.0464,0.015 c -0.062,0.031 -0.093,0.067 -0.093,0.1085 0,0.083 0.041,0.1447 0.1241,0.186 0.052,0.031 0.124,0.047 0.217,0.047 l 0.1705,-0.015 c 0.072,-0.01 0.1241,-0.015 0.1551,-0.015 0.341,0 0.5787,0.1136 0.7131,0.341 0.1033,0.1654 0.155,0.3876 0.155,0.6666 v 2.0309 c 0,0.4134 0.01,0.7958 0.015,1.1472 v 5.5966 c 0,2.4908 -0.1963,4.1703 -0.5891,5.0385 -0.1757,0.3824 -0.8475,1.1368 -2.0154,2.2634 1.2609,-0.4651 2.2583,-1.1059 2.9921,-1.9224 0.8061,-0.9198 1.2092,-1.9792 1.2092,-3.1781 0,-0.186 -0.01,-0.3255 -0.015,-0.4186 0.8268,1.0542 2.0464,1.6485 3.6587,1.7829 2.1704,-0.1654 3.6432,-0.987 4.4183,-2.465 0.8062,1.478 2.2893,2.2996 4.4494,2.465 h 22.3087 v -0.6977 h -16.2161 c -1.1162,-0.248 -2.0102,-0.8785 -2.682,-1.8913 -0.6201,-0.9405 -0.9301,-2.0206 -0.9301,-3.2401 0,-1.4986 0.5219,-2.5012 1.5658,-3.0076 0.6821,-0.3204 1.8758,-0.4806 3.5811,-0.4806 0.6098,0 1.4573,0.026 2.5425,0.078 l 1.3178,0.062 1.3177,0.031 c 2.0981,0.052 3.8086,-0.093 5.1315,-0.434 1.0438,-0.2688 1.943,-0.894 2.6975,-1.8759 0.2687,-0.3307 0.5219,-0.7183 0.7596,-1.1627 l 0.2481,-0.4961 0.1085,-0.217 0.093,-0.1861 c -0.8268,1.4263 -2.5115,2.2324 -5.0539,2.4185 -1.4987,0.1033 -3.2246,0.1498 -5.178,0.1395 h -1.2247 l -1.2248,-0.015 c -1.0438,-0.01 -1.8448,-0.015 -2.4029,-0.015 -1.5917,0 -2.9508,0.5374 -4.0773,1.6123 -1.1162,1.0645 -1.6743,2.3513 -1.6743,3.8602 0,1.0852 0.2635,2.0568 0.7906,2.9146 0.4961,0.8165 1.1731,1.4521 2.0309,1.9068 h -3.8292 c -0.6511,-0.021 -1.2661,-0.217 -1.8449,-0.5891 -0.7441,-0.4651 -1.2505,-1.1679 -1.5192,-2.1084 -0.1757,-0.6408 -0.2636,-1.5606 -0.2636,-2.7595 0.021,-3.8964 0.031,-5.9169 0.031,-6.0616 0,-0.3411 0.052,-0.5995 0.155,-0.7752 0.1447,-0.248 0.4135,-0.3721 0.8062,-0.3721 h 0.1085 c 0.072,0 0.1395,-0.01 0.2015,-0.015 0.1757,-0.031 0.2636,-0.078 0.2636,-0.1395 0,-0.1033 -0.098,-0.155 -0.2946,-0.155 h -4.1547 c -0.1964,0 -0.2946,0.052 -0.2946,0.155 0,0.1034 0.1912,0.155 0.5736,0.155 0.3928,0 0.6615,0.1292 0.8062,0.3876 0.1033,0.1861 0.155,0.5013 0.155,0.9457 v 5.8291 c -0.01,0.6615 -0.057,1.2506 -0.1395,1.7673 -0.1034,0.6822 -0.2688,1.2661 -0.4961,1.7519 -0.5788,1.2505 -1.5658,1.912 -2.9611,1.9843 -1.2919,-0.062 -2.2376,-0.5942 -2.837,-1.5968 -0.4548,-0.7441 -0.708,-1.7466 -0.7597,-3.0075 v -7.0849 c 0,-0.2997 0.036,-0.5116 0.1086,-0.6356 0.093,-0.1447 0.2687,-0.248 0.5271,-0.31 0.083,-0.021 0.1705,-0.036 0.2635,-0.047 h 0.1085 l 0.093,-0.015 c 0.093,-0.01 0.1396,-0.057 0.1396,-0.1395 0,-0.1033 -0.093,-0.155 -0.2791,-0.155 z m -204.2356,0.015 c -0.4547,0 -1.1317,0.01 -2.0309,0.015 l -1.0232,0.015 h -1.0076 c -0.041,0.021 -0.062,0.062 -0.062,0.124 0,0.1034 0.098,0.1654 0.2946,0.1861 h 0.4651 c 0.3721,0 0.6046,0.1498 0.6976,0.4495 0.041,0.1034 0.062,0.2429 0.062,0.4186 v 6.3097 c 0,1.1782 -0.088,2.0877 -0.2635,2.7285 -0.2687,0.9612 -0.7752,1.6743 -1.5193,2.1394 -0.6098,0.3824 -1.2196,0.5788 -1.8294,0.5891 h -12.7744 c -1.6743,0 -2.961,-0.6149 -3.8602,-1.8448 -0.7855,-1.0542 -1.1782,-2.3926 -1.1782,-4.0153 0,-1.0645 0.1705,-2.0308 0.5116,-2.899 h -1.9069 c -0.2894,0.7338 -0.4341,1.5244 -0.4341,2.3719 0,2.0774 0.708,3.7776 2.1239,5.1005 1.2919,1.2196 2.8732,1.881 4.7439,1.9844 h 12.7744 c 2.3978,-0.1964 3.9533,-1.1834 4.6664,-2.9611 0.2791,-0.7028 0.4599,-1.5968 0.5426,-2.682 0.031,-0.4134 0.052,-0.9043 0.062,-1.4728 v -1.5193 c 0,-0.1447 0.01,-0.8009 0.015,-1.9688 0.01,-1.1679 0.015,-1.757 0.015,-1.7674 0,-0.403 0.057,-0.6821 0.1706,-0.8371 0.093,-0.1137 0.2635,-0.1757 0.5116,-0.1861 h 0.2015 c 0.2274,0 0.3462,-0.047 0.3566,-0.1395 0,-0.093 -0.1085,-0.1395 -0.3256,-0.1395 z m 158.781,0.6201 c 1.5193,0 2.7906,0.5736 3.8137,1.7208 1.0646,1.1989 1.5968,2.7647 1.5968,4.6974 0,1.9534 -0.496,3.4572 -1.4882,4.5114 -0.8785,0.9301 -2.0154,1.3952 -3.4107,1.3952 -1.5813,0 -2.9042,-0.5529 -3.9687,-1.6588 -1.1576,-1.2092 -1.7364,-2.8577 -1.7364,-4.9454 0,-1.8294 0.4806,-3.2505 1.4418,-4.2633 0.9199,-0.9715 2.1704,-1.4573 3.7517,-1.4573 z m -138.1001,0.047 c 1.509,0 2.7699,0.5478 3.7827,1.6433 1.0852,1.1783 1.6279,2.7544 1.6279,4.7284 0,1.447 -0.2584,2.6407 -0.7752,3.5812 -0.4031,0.7545 -0.9663,1.3332 -1.6898,1.7363 -0.2791,0.1551 -0.5788,0.2842 -0.8992,0.3876 -0.2584,0.072 -0.5167,0.1292 -0.7751,0.1705 -0.1137,0.01 -0.2222,0.021 -0.3256,0.031 h -0.4341 c -1.6226,0 -2.961,-0.5581 -4.0152,-1.6743 -1.1266,-1.2092 -1.6899,-2.8525 -1.6899,-4.9299 0,-1.8397 0.4858,-3.2608 1.4573,-4.2633 0.9199,-0.9405 2.1653,-1.4108 3.7362,-1.4108 z m 278.5257,0 c 1.5089,0 2.7698,0.5478 3.7827,1.6433 1.0852,1.1783 1.6278,2.7544 1.6278,4.7284 0,1.447 -0.2584,2.6407 -0.7752,3.5812 -0.403,0.7545 -0.9663,1.3332 -1.6898,1.7363 -0.279,0.1551 -0.5788,0.2842 -0.8992,0.3876 -0.2583,0.072 -0.5167,0.1292 -0.7751,0.1705 -0.1137,0.01 -0.2222,0.021 -0.3256,0.031 h -0.434 c -1.6227,0 -2.9611,-0.5581 -4.0153,-1.6743 -1.1265,-1.2092 -1.6898,-2.8525 -1.6898,-4.9299 0,-1.8397 0.4857,-3.2608 1.4573,-4.2633 0.9198,-0.9405 2.1652,-1.4108 3.7362,-1.4108 z m -119.7292,0.062 h 7.736 c 1.4779,0 2.6562,0.615 3.5347,1.8449 0.7854,1.1162 1.1782,2.4856 1.1782,4.1083 0,1.6949 -0.4289,3.1315 -1.2868,4.3098 -0.9508,1.3229 -2.2427,1.9843 -3.8757,1.9843 h -11.1466 v -7.2708 c 0.1344,-1.3229 0.5013,-2.4392 1.1007,-3.3487 0.7028,-1.0852 1.6227,-1.6278 2.7595,-1.6278 z m 90.6147,0 h 7.7359 c 1.478,0 2.6562,0.615 3.5347,1.8449 0.7855,1.1162 1.1782,2.4856 1.1782,4.1083 0,1.6949 -0.4289,3.1315 -1.2867,4.3098 -0.9509,1.3229 -2.2428,1.9843 -3.8758,1.9843 h -11.1466 v -7.2708 c 0.1344,-1.3229 0.5013,-2.4392 1.1007,-3.3487 0.7028,-1.0852 1.6227,-1.6278 2.7596,-1.6278 z m -228.6062,14.1852 c -0.3824,0 -0.7028,0.1344 -0.9612,0.4031 -0.2687,0.2584 -0.4031,0.5788 -0.4031,0.9612 0,0.3824 0.1344,0.7079 0.4031,0.9767 0.2584,0.2583 0.5788,0.3875 0.9612,0.3875 0.3824,0 0.7028,-0.1292 0.9611,-0.3875 0.2688,-0.2688 0.4031,-0.5943 0.4031,-0.9767 0,-0.3824 -0.1343,-0.7028 -0.4031,-0.9612 -0.2583,-0.2687 -0.5787,-0.4031 -0.9611,-0.4031 z m 169.8035,0 c -0.3824,0 -0.7028,0.1344 -0.9611,0.4031 -0.2688,0.2584 -0.4031,0.5788 -0.4031,0.9612 0,0.3824 0.1343,0.7079 0.4031,0.9767 0.2583,0.2583 0.5787,0.3875 0.9611,0.3875 0.3825,0 0.7028,-0.1292 0.9612,-0.3875 0.2687,-0.2688 0.4031,-0.5943 0.4031,-0.9767 0,-0.3824 -0.1344,-0.7028 -0.4031,-0.9612 -0.2584,-0.2687 -0.5787,-0.4031 -0.9612,-0.4031 z m -157.9981,9.3793 c -0.1963,0 -0.2945,0.047 -0.2945,0.1395 0,0.072 0.1292,0.124 0.3876,0.155 l 0.155,0.015 0.155,0.015 c 0.1034,0.01 0.1705,0.021 0.2016,0.031 0.2893,0.072 0.4702,0.2429 0.5426,0.5116 0.052,0.1757 0.078,0.5737 0.078,1.1938 0.01,0.072 0.015,1.4159 0.015,4.0307 v 8.8987 c 0,1.509 -0.1912,2.6717 -0.5736,3.4882 -0.5685,1.2092 -1.5813,1.8655 -3.0386,1.9688 v -0.015 c -1.2919,-0.062 -2.2376,-0.5942 -2.837,-1.5968 -0.4548,-0.7441 -0.708,-1.7466 -0.7597,-3.0075 v -7.0849 c 0,-0.2997 0.036,-0.5116 0.1085,-0.6356 0.093,-0.1447 0.2688,-0.248 0.5271,-0.31 0.083,-0.021 0.1706,-0.036 0.2636,-0.047 h 0.1085 l 0.093,-0.015 c 0.093,-0.01 0.1395,-0.057 0.1395,-0.1395 0,-0.1033 -0.093,-0.155 -0.279,-0.155 -0.4444,0 -1.1162,0.01 -2.0154,0.015 l -2.0464,0.015 c -0.062,0.031 -0.093,0.067 -0.093,0.1085 0,0.083 0.041,0.1447 0.124,0.186 0.052,0.031 0.1241,0.047 0.2171,0.047 l 0.1705,-0.015 c 0.072,-0.01 0.124,-0.015 0.155,-0.015 0.3411,0 0.5788,0.1136 0.7132,0.341 0.1033,0.1654 0.155,0.3876 0.155,0.6666 v 2.0309 c 0,0.4134 0.01,0.7958 0.015,1.1472 v 5.5966 c 0,2.4908 -0.1964,4.1703 -0.5891,5.0385 -0.1757,0.3824 -0.8475,1.1368 -2.0154,2.2634 1.2609,-0.4651 2.2583,-1.1059 2.9921,-1.9224 0.8061,-0.9198 1.2092,-1.9792 1.2092,-3.1781 0,-0.186 -0.01,-0.3255 -0.015,-0.4186 0.8268,1.0542 2.0464,1.6485 3.6587,1.7829 2.5941,-0.2067 4.2168,-1.385 4.8679,-3.5347 0.2481,-0.7958 0.3876,-1.8345 0.4186,-3.1161 0.01,-0.4341 0.01,-0.9922 0,-1.6743 l -0.016,-0.8372 v -10.3404 c 0,-0.5271 0.062,-0.8785 0.186,-1.0542 0.1447,-0.1964 0.4496,-0.2946 0.9147,-0.2946 0.031,0 0.062,-0.015 0.093,-0.046 0.031,-0.031 0.047,-0.062 0.047,-0.093 0,-0.093 -0.093,-0.1395 -0.279,-0.1395 z m 17.5184,0 c -0.1861,0 -0.2791,0.047 -0.2791,0.1395 0,0.062 0.1395,0.124 0.4186,0.186 l 0.1705,0.031 0.155,0.047 c 0.1137,0.021 0.1861,0.047 0.2171,0.078 0.186,0.1653 0.279,0.6924 0.279,1.5813 v 11.0381 c 0,2.5011 0.2377,4.2684 0.7132,5.302 0.7441,1.6329 2.2634,2.5424 4.5578,2.7285 2.1704,-0.1654 3.6432,-0.987 4.4184,-2.465 0.8061,1.478 2.2892,2.2996 4.4493,2.465 2.1704,-0.1654 3.6432,-0.987 4.4183,-2.465 0.8062,1.478 2.2893,2.2996 4.4494,2.465 h 20.8669 22.8979 16.6036 c 1.912,0 3.5295,-0.6977 4.8524,-2.0929 1.3023,-1.3849 1.9534,-3.0644 1.9534,-5.0385 0,-1.9843 -0.6873,-3.5811 -2.0619,-4.7904 -1.3023,-1.1472 -2.9352,-1.7208 -4.8989,-1.7208 l -7.2864,0.031 c -0.6925,0 -1.4004,0.2274 -2.1239,0.6821 -0.5788,0.3514 -1.1576,0.8424 -1.7363,1.4728 0,-0.8165 0.052,-1.3281 0.155,-1.5348 0.124,-0.2687 0.4444,-0.4031 0.9612,-0.4031 0.083,-0.01 0.124,-0.041 0.124,-0.093 0,-0.041 -0.026,-0.083 -0.077,-0.124 -0.062,-0.041 -0.1292,-0.062 -0.2016,-0.062 h -3.8447 c -0.2067,0 -0.3101,0.062 -0.3101,0.186 0,0.052 0.052,0.083 0.1551,0.093 0.4444,0 0.7596,0.052 0.9457,0.1551 0.2583,0.155 0.3979,0.4444 0.4185,0.8681 0.021,0.3514 0.031,2.0878 0.031,5.209 v 6.4647 h -3.6586 -8.2941 c 1.2712,-0.5581 2.2634,-1.4469 2.9765,-2.6665 0.6822,-1.1472 1.0232,-2.4081 1.0232,-3.7827 0,-2.0257 -0.6976,-3.638 -2.0929,-4.8369 -1.3229,-1.1369 -3.0024,-1.7053 -5.0384,-1.7053 -2.3978,0 -4.2633,0.8371 -5.5966,2.5115 -1.0542,1.3125 -1.5813,2.7543 -1.5813,4.3253 0,1.2195 0.2843,2.3513 0.8527,3.3951 0.6615,1.2093 1.6226,2.1291 2.8835,2.7595 h -8.0305 c -1.0025,-0.041 -1.7828,-0.3514 -2.3409,-0.9301 -1.0439,-1.0646 -2.4805,-2.7544 -4.3098,-5.0695 -2.2014,-2.7905 -4.3719,-4.6457 -6.5113,-5.5655 -1.1782,-0.5065 -2.4081,-0.863 -3.6897,-1.0697 -0.4961,-0.072 -0.9921,-0.1292 -1.4882,-0.1706 -0.3721,-0.021 -0.7494,-0.031 -1.1318,-0.031 -0.155,0 -0.2325,0.062 -0.2325,0.1861 0,0.1033 0.1189,0.155 0.3566,0.155 1.4056,0.093 2.6871,0.3824 3.8447,0.8681 0.1447,0.062 0.2842,0.1241 0.4186,0.1861 0.1963,0.093 0.3875,0.1912 0.5736,0.2945 0.5064,0.2791 1.018,0.5995 1.5348,0.9612 1.4469,1.0232 2.8473,2.3255 4.2013,3.9068 3.0902,3.6586 4.9506,5.7515 5.581,6.2786 h -17.6733 c -0.6511,-0.021 -1.2661,-0.217 -1.8449,-0.5891 -0.7441,-0.4651 -1.2505,-1.1679 -1.5193,-2.1084 -0.1757,-0.6408 -0.2635,-1.5606 -0.2635,-2.7595 0.021,-3.8964 0.031,-5.9169 0.031,-6.0616 0,-0.3411 0.052,-0.5995 0.155,-0.7752 0.1447,-0.248 0.4134,-0.3721 0.8062,-0.3721 h 0.1085 c 0.072,0 0.1395,-0.01 0.2015,-0.015 0.1757,-0.031 0.2636,-0.078 0.2636,-0.1395 0,-0.1033 -0.098,-0.155 -0.2946,-0.155 h -4.1547 c -0.1964,0 -0.2946,0.052 -0.2946,0.155 0,0.1034 0.1912,0.155 0.5736,0.155 0.3927,0 0.6615,0.1292 0.8062,0.3876 0.1033,0.1861 0.155,0.5013 0.155,0.9457 v 5.8291 c -0.01,0.6615 -0.057,1.2506 -0.1395,1.7673 -0.1034,0.6822 -0.2688,1.2661 -0.4961,1.7519 -0.5788,1.2505 -1.5658,1.912 -2.9611,1.9843 -0.6511,-0.021 -1.2661,-0.217 -1.8448,-0.5891 -0.7442,-0.4651 -1.2506,-1.1679 -1.5193,-2.1084 -0.1757,-0.6408 -0.2636,-1.5606 -0.2636,-2.7595 0.021,-3.8964 0.031,-5.9169 0.031,-6.0616 0,-0.3411 0.052,-0.5995 0.1551,-0.7752 0.1446,-0.248 0.4134,-0.3721 0.8061,-0.3721 h 0.1085 c 0.072,0 0.1396,-0.01 0.2016,-0.015 0.1757,-0.031 0.2635,-0.078 0.2635,-0.1395 0,-0.1033 -0.098,-0.155 -0.2945,-0.155 h -4.1548 c -0.1964,0 -0.2946,0.052 -0.2946,0.155 0,0.1034 0.1912,0.155 0.5736,0.155 0.3928,0 0.6615,0.1292 0.8062,0.3876 0.1033,0.1861 0.155,0.5013 0.155,0.9457 v 5.8291 c -0.01,0.6615 -0.057,1.2506 -0.1395,1.7673 -0.1034,0.6822 -0.2687,1.2661 -0.4961,1.7519 -0.5788,1.2505 -1.5658,1.912 -2.9611,1.9843 v 0.015 c -1.4676,-0.1033 -2.4804,-0.7596 -3.0385,-1.9688 -0.2274,-0.4754 -0.3876,-1.0491 -0.4806,-1.7209 -0.062,-0.4857 -0.093,-1.0748 -0.093,-1.7673 0,-0.8785 0.01,-3.0541 0.015,-6.5267 0.01,-3.4623 0.016,-5.855 0.016,-7.1779 0,-0.372 0.088,-0.6304 0.2635,-0.7751 0.1964,-0.1551 0.5581,-0.2326 1.0852,-0.2326 0.041,0 0.077,-0.015 0.1085,-0.046 0.031,-0.031 0.046,-0.062 0.046,-0.093 0,-0.093 -0.098,-0.1395 -0.2945,-0.1395 z m 126.0078,0 c -0.1964,0 -0.2946,0.047 -0.2946,0.1395 0,0.1034 0.1447,0.1654 0.4341,0.186 h 0.1705 l 0.1551,0.015 c 0.1136,0 0.186,0.01 0.217,0.031 0.279,0.155 0.4496,0.3927 0.5116,0.7131 0.031,0.124 0.046,0.279 0.046,0.4651 v 0.5116 c 0,3.917 0.01,7.0848 0.015,9.5033 v 3.4261 c 0,1.509 -0.1912,2.6717 -0.5736,3.4882 -0.5766,1.2046 -1.5902,1.8591 -3.0386,1.9663 v -0.013 c -0.8578,-0.052 -1.6278,-0.3772 -2.3099,-0.9766 -0.6821,-0.5788 -1.0801,-1.2609 -1.1937,-2.0464 -0.2378,-1.633 -0.9767,-2.9921 -2.217,-4.0773 -1.2609,-1.0955 -2.7233,-1.6433 -4.3873,-1.6433 -0.9405,0 -1.8138,0.1964 -2.62,0.5891 -0.6511,0.3101 -1.2402,0.739 -1.7673,1.2867 -0.2171,0.2068 -0.4134,0.4341 -0.5891,0.6822 -0.1447,0.186 -0.2791,0.3772 -0.4031,0.5736 -0.052,0.083 -0.098,0.1602 -0.1395,0.2325 l -0.093,0.1551 c -0.021,0.041 -0.036,0.078 -0.046,0.1085 -0.01,0.021 -0.01,0.026 0,0.015 0.4548,-0.7338 1.2661,-1.4005 2.434,-1.9999 1.1576,-0.5891 2.2324,-0.8837 3.2246,-0.8837 1.4676,0 2.7595,0.4806 3.8757,1.4418 1.1059,0.9612 1.7674,2.1549 1.9844,3.5812 0.124,0.8681 -0.2687,1.6588 -1.1782,2.3719 -0.3824,0.2894 -0.8475,0.4703 -1.3953,0.5426 -0.217,0.021 -0.4702,0.036 -0.7596,0.046 h -12.3869 c -1.1162,0 -2.0929,-0.2687 -2.93,-0.8061 -0.7752,-0.5064 -1.3798,-1.2041 -1.8139,-2.0929 -0.4134,-0.8475 -0.6304,-1.788 -0.6511,-2.8215 -0.021,-1.0439 0.1551,-2.0568 0.5271,-3.0386 h -1.9068 c -0.6822,1.8293 -0.5891,3.638 0.279,5.426 0.8682,1.7984 2.2273,3.0076 4.0773,3.6277 0.7855,0.2687 1.7983,0.4031 3.0386,0.4031 h 10.9915 c 1.1059,0 1.9792,-0.088 2.62,-0.2636 0.9612,-0.2687 1.6537,-0.77 2.0774,-1.5038 0.8549,1.0403 2.0699,1.6278 3.6432,1.7648 v 0 c 0,-2e-4 0.01,-8e-4 0.01,0 0,3e-4 0,8e-4 0.01,0 v 0 c 2.1716,-0.1683 3.6504,-0.9934 4.4339,-2.4779 0.7648,1.4883 2.2427,2.3151 4.4338,2.4805 h 22.3087 v -0.6977 h -16.2161 c -1.1162,-0.248 -2.0102,-0.8785 -2.682,-1.8913 -0.6201,-0.9405 -0.9301,-2.0206 -0.9301,-3.2401 0,-1.4986 0.5219,-2.5012 1.5658,-3.0076 0.6821,-0.3204 1.8758,-0.4806 3.5811,-0.4806 0.6098,0 1.4573,0.026 2.5425,0.078 l 1.3178,0.062 1.3177,0.031 c 2.0981,0.052 3.8086,-0.093 5.1315,-0.434 1.0438,-0.2688 1.943,-0.894 2.6975,-1.8759 0.2687,-0.3307 0.5219,-0.7183 0.7596,-1.1627 l 0.2481,-0.4961 0.1085,-0.217 0.093,-0.1861 c -0.8268,1.4263 -2.5115,2.2324 -5.0539,2.4185 -1.4986,0.1033 -3.2246,0.1498 -5.178,0.1395 h -1.2247 l -1.2248,-0.015 c -1.0438,-0.01 -1.8448,-0.015 -2.4029,-0.015 -1.5917,0 -2.9508,0.5374 -4.0773,1.6123 -1.1162,1.0645 -1.6743,2.3513 -1.6743,3.8602 0,1.0852 0.2635,2.0568 0.7906,2.9146 0.4961,0.8165 1.1731,1.4521 2.0309,1.9068 h -3.8292 v 0.015 c -1.4573,-0.1033 -2.4701,-0.7596 -3.0386,-1.9688 -0.3824,-0.8062 -0.5736,-1.9689 -0.5736,-3.4882 v -12.9294 c 0,-0.7442 0.062,-1.2144 0.186,-1.4108 0.1654,-0.248 0.5685,-0.3721 1.2093,-0.3721 0.031,0 0.062,-0.015 0.093,-0.046 0.031,-0.031 0.047,-0.062 0.047,-0.093 0,-0.093 -0.098,-0.1395 -0.2946,-0.1395 z m 35.9978,0 c -0.1861,0 -0.2791,0.047 -0.2791,0.1395 0,0.062 0.1395,0.124 0.4186,0.186 l 0.1705,0.031 0.1551,0.047 c 0.1136,0.021 0.186,0.047 0.217,0.078 0.186,0.1653 0.279,0.6924 0.279,1.5813 v 11.0381 c 0,2.5011 0.2378,4.2684 0.7132,5.302 0.7441,1.6329 2.2634,2.5424 4.5578,2.7285 2.1705,-0.1654 3.6432,-0.987 4.4184,-2.465 0.8061,1.478 2.2892,2.2996 4.4493,2.465 2.1704,-0.1654 3.6432,-0.987 4.4184,-2.465 0.8061,1.478 2.2892,2.2996 4.4493,2.465 h 23.828 c 2.3978,-0.1964 3.9532,-1.1834 4.6664,-2.9611 0.279,-0.7028 0.4599,-1.5968 0.5426,-2.682 0.031,-0.4134 0.052,-0.9043 0.062,-1.4728 v -5.2555 c 0,-0.5271 0.2067,-0.8423 0.6201,-0.9456 0.062,-0.021 0.1395,-0.036 0.2326,-0.047 l 0.093,-0.015 0.1085,-0.015 c 0.124,-0.021 0.186,-0.062 0.186,-0.124 0,-0.1033 -0.098,-0.155 -0.2945,-0.155 -0.4444,0 -1.1162,0.01 -2.0154,0.015 l -2.0464,0.015 c -0.062,0.031 -0.093,0.072 -0.093,0.124 0,0.072 0.026,0.1137 0.078,0.124 0.062,0.021 0.2274,0.031 0.4961,0.031 0.3927,0 0.6666,0.1447 0.8217,0.4341 0.1033,0.1964 0.155,0.491 0.155,0.8837 v 5.8911 c 0,1.1782 -0.088,2.0877 -0.2636,2.7285 -0.2687,0.9612 -0.7751,1.6743 -1.5193,2.1394 -0.6097,0.3824 -1.2195,0.5788 -1.8293,0.5891 h -9.6273 c 0.8371,-1.3125 2.0154,-2.7078 3.5346,-4.1857 1.6847,-1.633 2.9714,-2.5167 3.8603,-2.651 -0.7855,-1.8914 -2.1291,-3.359 -4.0308,-4.4029 -1.7156,-0.9405 -3.607,-1.4107 -5.6741,-1.4107 -2.1084,0 -4.0256,0.4805 -5.7515,1.4417 -1.8811,1.0542 -3.2092,2.5115 -3.9843,4.3719 0.8888,0.1343 2.1756,1.018 3.8602,2.651 1.5297,1.4779 2.7079,2.8732 3.5347,4.1857 h -9.5498 c -0.6511,-0.021 -1.2661,-0.217 -1.8449,-0.5891 -0.7441,-0.4651 -1.2505,-1.1679 -1.5192,-2.1084 -0.1757,-0.6408 -0.2636,-1.5606 -0.2636,-2.7595 0.021,-3.8964 0.031,-5.9169 0.031,-6.0616 0,-0.3411 0.052,-0.5995 0.155,-0.7752 0.1447,-0.248 0.4135,-0.3721 0.8062,-0.3721 h 0.1085 c 0.072,0 0.1395,-0.01 0.2016,-0.015 0.1757,-0.031 0.2635,-0.078 0.2635,-0.1395 0,-0.1033 -0.098,-0.155 -0.2945,-0.155 h -4.1548 c -0.1964,0 -0.2946,0.052 -0.2946,0.155 0,0.1034 0.1912,0.155 0.5736,0.155 0.3928,0 0.6615,0.1292 0.8062,0.3876 0.1033,0.1861 0.155,0.5013 0.155,0.9457 v 5.8291 c -0.01,0.6615 -0.057,1.2506 -0.1395,1.7673 -0.1034,0.6822 -0.2687,1.2661 -0.4961,1.7519 -0.5788,1.2505 -1.5658,1.912 -2.9611,1.9843 -0.6511,-0.021 -1.2661,-0.217 -1.8448,-0.5891 -0.7442,-0.4651 -1.2506,-1.1679 -1.5193,-2.1084 -0.1757,-0.6408 -0.2636,-1.5606 -0.2636,-2.7595 0.021,-3.8964 0.031,-5.9169 0.031,-6.0616 0,-0.3411 0.052,-0.5995 0.1551,-0.7752 0.1447,-0.248 0.4134,-0.3721 0.8061,-0.3721 h 0.1085 c 0.072,0 0.1396,-0.01 0.2016,-0.015 0.1757,-0.031 0.2635,-0.078 0.2635,-0.1395 0,-0.1033 -0.098,-0.155 -0.2945,-0.155 h -4.1548 c -0.1964,0 -0.2946,0.052 -0.2946,0.155 0,0.1034 0.1912,0.155 0.5736,0.155 0.3928,0 0.6615,0.1292 0.8062,0.3876 0.1033,0.1861 0.155,0.5013 0.155,0.9457 v 5.8291 c -0.01,0.6615 -0.057,1.2506 -0.1395,1.7673 -0.1034,0.6822 -0.2687,1.2661 -0.4961,1.7519 -0.5788,1.2505 -1.5658,1.912 -2.9611,1.9843 v 0.015 c -1.4676,-0.1033 -2.4804,-0.7596 -3.0385,-1.9688 -0.2274,-0.4754 -0.3876,-1.0491 -0.4806,-1.7209 -0.062,-0.4857 -0.093,-1.0748 -0.093,-1.7673 0,-0.8785 0.01,-3.0541 0.015,-6.5267 0.01,-3.4623 0.015,-5.855 0.015,-7.1779 0,-0.372 0.088,-0.6304 0.2635,-0.7751 0.1964,-0.1551 0.5581,-0.2326 1.0852,-0.2326 0.041,0 0.078,-0.015 0.1085,-0.046 0.031,-0.031 0.047,-0.062 0.047,-0.093 0,-0.093 -0.098,-0.1395 -0.2946,-0.1395 z m 56.1826,0 c -0.1861,0 -0.2791,0.047 -0.2791,0.1395 0,0.062 0.1396,0.124 0.4186,0.186 l 0.1705,0.031 0.1551,0.047 c 0.1137,0.021 0.186,0.047 0.217,0.078 0.186,0.1653 0.2791,0.6924 0.2791,1.5813 v 11.0381 c 0,2.5011 0.2377,4.2684 0.7131,5.302 0.7441,1.6329 2.2634,2.5424 4.5579,2.7285 2.1704,-0.1654 3.6431,-0.987 4.4183,-2.465 0.8061,1.478 2.2893,2.2996 4.4493,2.465 1.0646,-0.083 1.9896,-0.3979 2.7751,-0.9457 0.8371,-0.5891 1.4159,-1.3953 1.7363,-2.4185 0.5581,1.0336 1.3642,1.8501 2.4184,2.4495 1.0956,0.6098 2.341,0.9147 3.7363,0.9147 2.0567,0 3.7723,-0.6615 5.1469,-1.9844 1.416,-1.3436 2.1239,-3.0541 2.1239,-5.1315 -0.062,-1.974 -0.7131,-3.5501 -1.9533,-4.7284 -1.292,-1.2299 -3.0231,-1.8448 -5.1935,-1.8448 -2.1394,0 -3.8913,0.708 -5.2555,2.1239 -1.2713,1.3126 -1.9069,2.8784 -1.9069,4.6974 v 0.7441 c 0,0.2894 -0.01,0.5478 -0.015,0.7752 -0.021,0.5994 -0.078,1.1162 -0.1705,1.5503 -0.2481,1.1782 -0.7803,2.0205 -1.5968,2.5269 -0.5581,0.3514 -1.1731,0.5426 -1.8449,0.5736 -0.6511,-0.021 -1.266,-0.217 -1.8448,-0.5891 -0.7442,-0.4651 -1.2506,-1.1679 -1.5193,-2.1084 -0.1757,-0.6408 -0.2635,-1.5606 -0.2635,-2.7595 0.021,-3.8964 0.031,-5.9169 0.031,-6.0616 0,-0.3411 0.052,-0.5995 0.155,-0.7752 0.1447,-0.248 0.4134,-0.3721 0.8061,-0.3721 h 0.1086 c 0.072,0 0.1395,-0.01 0.2015,-0.015 0.1757,-0.031 0.2635,-0.078 0.2635,-0.1395 0,-0.1033 -0.098,-0.155 -0.2945,-0.155 h -4.1548 c -0.1964,0 -0.2945,0.052 -0.2945,0.155 0,0.1034 0.1912,0.155 0.5736,0.155 0.3927,0 0.6614,0.1292 0.8061,0.3876 0.1034,0.1861 0.155,0.5013 0.155,0.9457 v 5.8291 c -0.01,0.6615 -0.057,1.2506 -0.1395,1.7673 -0.1033,0.6822 -0.2687,1.2661 -0.4961,1.7519 -0.5788,1.2505 -1.5658,1.912 -2.961,1.9843 v 0.015 c -1.4676,-0.1033 -2.4805,-0.7596 -3.0386,-1.9688 -0.2274,-0.4754 -0.3876,-1.0491 -0.4806,-1.7209 -0.062,-0.4857 -0.093,-1.0748 -0.093,-1.7673 0,-0.8785 0.01,-3.0541 0.016,-6.5267 0.01,-3.4623 0.015,-5.855 0.015,-7.1779 0,-0.372 0.088,-0.6304 0.2635,-0.7751 0.1964,-0.1551 0.5581,-0.2326 1.0852,-0.2326 0.041,0 0.078,-0.015 0.1086,-0.046 0.031,-0.031 0.046,-0.062 0.046,-0.093 0,-0.093 -0.098,-0.1395 -0.2946,-0.1395 z m -229.5209,0.015 c -0.083,0 -0.1499,0.021 -0.2015,0.062 -0.052,0.041 -0.077,0.083 -0.077,0.124 0,0.062 0.046,0.093 0.1395,0.093 0.3824,0.01 0.6511,0.083 0.8061,0.2171 0.1757,0.1447 0.2688,0.4082 0.2791,0.7906 l 0.015,18.185 c -0.021,0.4961 -0.088,0.832 -0.2015,1.0077 -0.1551,0.217 -0.4548,0.3307 -0.8992,0.341 -0.093,0.01 -0.1395,0.047 -0.1395,0.1085 0,0.041 0.026,0.083 0.077,0.1241 0.052,0.041 0.1188,0.062 0.2015,0.062 h 3.8602 c 0.083,0 0.1499,-0.021 0.2016,-0.062 0.052,-0.041 0.078,-0.083 0.078,-0.1241 0,-0.062 -0.047,-0.098 -0.1395,-0.1085 -0.5685,-0.01 -0.9302,-0.098 -1.0852,-0.2635 -0.1964,-0.2171 -0.2946,-0.7235 -0.2946,-1.5193 -0.021,-11.0898 -0.01,-17.0067 0.031,-17.7509 0.021,-0.4341 0.155,-0.7183 0.4031,-0.8526 0.1654,-0.093 0.4806,-0.1447 0.9457,-0.1551 0.093,0 0.1395,-0.031 0.1395,-0.093 0,-0.041 -0.026,-0.083 -0.078,-0.124 -0.052,-0.041 -0.1189,-0.062 -0.2016,-0.062 z m -83.3747,2.6975 c -0.3721,0 -0.6925,0.1344 -0.9612,0.4031 -0.2687,0.2687 -0.4031,0.5891 -0.4031,0.9612 0,0.3824 0.1344,0.7079 0.4031,0.9766 0.2687,0.2584 0.5891,0.3876 0.9612,0.3876 0.3824,0 0.7028,-0.1292 0.9611,-0.3876 0.2688,-0.2687 0.4031,-0.5942 0.4031,-0.9766 0,-0.3825 -0.1343,-0.7028 -0.4031,-0.9612 -0.2583,-0.2687 -0.5787,-0.4031 -0.9611,-0.4031 z m 3.3331,0 c -0.3824,0 -0.7028,0.1344 -0.9612,0.4031 -0.2687,0.2584 -0.4031,0.5787 -0.4031,0.9612 0,0.3824 0.1344,0.7079 0.4031,0.9766 0.2584,0.2584 0.5788,0.3876 0.9612,0.3876 0.3721,0 0.6924,-0.1292 0.9612,-0.3876 0.2687,-0.2687 0.403,-0.5942 0.403,-0.9766 0,-0.3721 -0.1343,-0.6925 -0.403,-0.9612 -0.2688,-0.2687 -0.5891,-0.4031 -0.9612,-0.4031 z m 102.0403,0 c -0.3824,0 -0.708,0.1344 -0.9767,0.4031 -0.2584,0.2687 -0.3876,0.5891 -0.3876,0.9612 0,0.3824 0.1292,0.7028 0.3876,0.9611 0.2687,0.2688 0.5943,0.4031 0.9767,0.4031 0.3824,0 0.7028,-0.1343 0.9611,-0.4031 0.2688,-0.2583 0.4031,-0.5787 0.4031,-0.9611 0,-0.3721 -0.1343,-0.6925 -0.4031,-0.9612 -0.2687,-0.2687 -0.5891,-0.4031 -0.9611,-0.4031 z m 7.2243,0 c -0.372,0 -0.6924,0.1344 -0.9611,0.4031 -0.2688,0.2687 -0.4031,0.5891 -0.4031,0.9612 0,0.3824 0.1343,0.7079 0.4031,0.9766 0.2687,0.2584 0.5891,0.3876 0.9611,0.3876 0.3824,0 0.7028,-0.1292 0.9612,-0.3876 0.2687,-0.2687 0.4031,-0.5942 0.4031,-0.9766 0,-0.3825 -0.1344,-0.7028 -0.4031,-0.9612 -0.2584,-0.2687 -0.5788,-0.4031 -0.9612,-0.4031 z m 3.3332,0 c -0.3824,0 -0.7028,0.1344 -0.9612,0.4031 -0.2687,0.2584 -0.4031,0.5787 -0.4031,0.9612 0,0.3824 0.1344,0.7079 0.4031,0.9766 0.2584,0.2584 0.5788,0.3876 0.9612,0.3876 0.372,0 0.6924,-0.1292 0.9611,-0.3876 0.2688,-0.2687 0.4031,-0.5942 0.4031,-0.9766 0,-0.3721 -0.1343,-0.6925 -0.4031,-0.9612 -0.2687,-0.2687 -0.5891,-0.4031 -0.9611,-0.4031 z m 35.0676,0 c -0.3824,0 -0.708,0.1344 -0.9767,0.4031 -0.2584,0.2687 -0.3876,0.5891 -0.3876,0.9612 0,0.3824 0.1292,0.7028 0.3876,0.9611 0.2687,0.2688 0.5943,0.4031 0.9767,0.4031 0.3824,0 0.7028,-0.1343 0.9612,-0.4031 0.2687,-0.2583 0.403,-0.5787 0.403,-0.9611 0,-0.3721 -0.1343,-0.6925 -0.403,-0.9612 -0.2687,-0.2687 -0.5891,-0.4031 -0.9612,-0.4031 z m 116.3805,0 c -0.3824,0 -0.708,0.1344 -0.9767,0.4031 -0.2584,0.2687 -0.3876,0.5891 -0.3876,0.9612 0,0.3824 0.1292,0.7028 0.3876,0.9611 0.2687,0.2688 0.5943,0.4031 0.9767,0.4031 0.3824,0 0.7028,-0.1343 0.9612,-0.4031 0.2687,-0.2583 0.403,-0.5787 0.403,-0.9611 0,-0.3721 -0.1343,-0.6925 -0.403,-0.9612 -0.2688,-0.2687 -0.5891,-0.4031 -0.9612,-0.4031 z m 7.2243,0 c -0.372,0 -0.6924,0.1344 -0.9611,0.4031 -0.2688,0.2687 -0.4031,0.5891 -0.4031,0.9612 0,0.3824 0.1343,0.7079 0.4031,0.9766 0.2687,0.2584 0.5891,0.3876 0.9611,0.3876 0.3825,0 0.7028,-0.1292 0.9612,-0.3876 0.2687,-0.2687 0.4031,-0.5942 0.4031,-0.9766 0,-0.3825 -0.1344,-0.7028 -0.4031,-0.9612 -0.2584,-0.2687 -0.5787,-0.4031 -0.9612,-0.4031 z m 3.3332,0 c -0.3824,0 -0.7028,0.1344 -0.9612,0.4031 -0.2687,0.2584 -0.4031,0.5787 -0.4031,0.9612 0,0.3824 0.1344,0.7079 0.4031,0.9766 0.2584,0.2584 0.5788,0.3876 0.9612,0.3876 0.372,0 0.6924,-0.1292 0.9612,-0.3876 0.2687,-0.2687 0.403,-0.5942 0.403,-0.9766 0,-0.3721 -0.1343,-0.6925 -0.403,-0.9612 -0.2688,-0.2687 -0.5892,-0.4031 -0.9612,-0.4031 z m 43.9818,0 c -0.3721,0 -0.6925,0.1344 -0.9612,0.4031 -0.2687,0.2687 -0.4031,0.5891 -0.4031,0.9612 0,0.3824 0.1344,0.7079 0.4031,0.9766 0.2687,0.2584 0.5891,0.3876 0.9612,0.3876 0.3824,0 0.7028,-0.1292 0.9612,-0.3876 0.2687,-0.2687 0.403,-0.5942 0.403,-0.9766 0,-0.3825 -0.1343,-0.7028 -0.403,-0.9612 -0.2584,-0.2687 -0.5788,-0.4031 -0.9612,-0.4031 z m 3.3331,0 c -0.3824,0 -0.7028,0.1344 -0.9612,0.4031 -0.2687,0.2584 -0.403,0.5787 -0.403,0.9612 0,0.3824 0.1343,0.7079 0.403,0.9766 0.2584,0.2584 0.5788,0.3876 0.9612,0.3876 0.3721,0 0.6925,-0.1292 0.9612,-0.3876 0.2687,-0.2687 0.4031,-0.5942 0.4031,-0.9766 0,-0.3721 -0.1344,-0.6925 -0.4031,-0.9612 -0.2687,-0.2687 -0.5891,-0.4031 -0.9612,-0.4031 z m -323.6236,4.7284 c -2.1291,0 -3.8499,0.6718 -5.1625,2.0154 -0.4858,0.5064 -0.8992,1.0903 -1.2402,1.7518 -0.2584,0.5271 -0.4548,1.0542 -0.5892,1.5813 -0.124,0.4961 -0.186,0.9922 -0.186,1.4883 0,1.788 0.5633,3.3073 1.6898,4.5578 1.2816,1.447 3.0799,2.2118 5.395,2.2945 2.7286,-0.093 4.8318,-1.2558 6.3097,-3.4882 0.2998,1.0542 0.8785,1.8914 1.7364,2.5115 0.7751,0.5478 1.7105,0.8733 2.806,0.9767 2.1704,-0.1654 3.6432,-0.987 4.4183,-2.465 0.8062,1.478 2.2893,2.2996 4.4494,2.465 1.0645,-0.083 1.9895,-0.3928 2.775,-0.9302 0.8475,-0.5788 1.4366,-1.3798 1.7673,-2.403 0.4961,1.0026 1.2816,1.8036 2.3565,2.403 1.1058,0.6201 2.3616,0.9302 3.7672,0.9302 2.4701,0 4.4597,-0.9767 5.9686,-2.9301 l 0.093,-0.1395 0.078,-0.1395 c 0.072,-0.1241 0.1344,-0.2171 0.1861,-0.2791 0.31,1.0646 0.8888,1.9017 1.7363,2.5115 0.7752,0.5684 1.7053,0.894 2.7905,0.9767 2.1808,-0.1551 3.6639,-0.9767 4.4494,-2.465 0.7751,1.4676 2.2324,2.2893 4.3718,2.465 0.9095,0 1.7673,-0.2171 2.5735,-0.6511 0.8268,-0.4548 1.4418,-1.0594 1.8448,-1.8139 0.8785,1.6433 2.3617,2.465 4.4494,2.465 2.2221,0 3.7207,-0.8062 4.4958,-2.4185 0.5168,-1.0645 0.7752,-2.7853 0.7752,-5.1625 v -4.7904 c 0,-0.5271 0.2067,-0.8423 0.6201,-0.9456 l 0.2325,-0.047 0.093,-0.015 0.1085,-0.015 c 0.124,-0.021 0.186,-0.062 0.186,-0.124 0,-0.1033 -0.098,-0.155 -0.2945,-0.155 l -2.0309,0.015 -2.0309,0.015 c -0.062,0 -0.093,0.031 -0.093,0.093 0,0.1344 0.1963,0.1964 0.5891,0.186 0.2997,-0.021 0.5271,0.1137 0.6821,0.4031 0.155,0.2791 0.2326,0.491 0.2326,0.6356 0.01,0.1344 0.026,2.1911 0.046,6.1702 0,1.5193 -0.2222,2.7285 -0.6667,3.6277 -0.5994,1.2196 -1.5813,1.8293 -2.9455,1.8293 -0.5891,0 -1.2041,-0.1963 -1.8449,-0.5891 -0.7441,-0.4651 -1.2505,-1.1782 -1.5193,-2.1394 -0.1757,-0.6408 -0.2635,-1.5503 -0.2635,-2.7285 0,-1.6226 0.01,-3.0179 0.015,-4.1858 0.01,-1.1679 0.015,-1.8448 0.015,-2.0309 0,-0.6614 0.3101,-0.9922 0.9302,-0.9922 0.3824,0 0.5736,-0.052 0.5736,-0.155 0,-0.1033 -0.098,-0.155 -0.2946,-0.155 h -4.1238 c -0.186,0 -0.279,0.052 -0.279,0.155 -0.031,0.072 0.093,0.1189 0.3721,0.1395 l 0.186,0.031 0.2015,0.015 c 0.1447,0.031 0.2636,0.072 0.3566,0.124 0.124,0.072 0.217,0.1808 0.2791,0.3255 0.052,0.1241 0.088,0.3928 0.1085,0.8062 0.01,0.1654 0.015,0.3152 0.015,0.4496 v 5.4725 c 0,1.509 -0.2222,2.713 -0.6666,3.6122 -0.5995,1.2299 -1.5762,1.8448 -2.9301,1.8448 -1.3332,0 -2.2944,-0.6201 -2.8835,-1.8603 -0.4445,-0.9198 -0.6667,-2.1187 -0.6667,-3.5967 -0.01,-1.726 -0.015,-3.2814 -0.015,-4.6664 v -1.6123 c 0,-0.279 0.052,-0.4909 0.1551,-0.6356 0.1447,-0.1964 0.4134,-0.2946 0.8061,-0.2946 0.3824,0 0.5736,-0.052 0.5736,-0.155 0,-0.1033 -0.093,-0.155 -0.279,-0.155 h -4.1238 c -0.1964,0 -0.2946,0.052 -0.2946,0.155 0,0.072 0.1757,0.1344 0.5271,0.1861 l 0.2171,0.015 0.186,0.031 c 0.1447,0.031 0.2377,0.062 0.2791,0.093 0.1343,0.1137 0.2273,0.2894 0.279,0.5271 0.021,0.093 0.031,0.1964 0.031,0.31 0.01,0.083 0.015,0.1706 0.015,0.2636 v 5.9376 c 0,1.1782 -0.088,2.0877 -0.2635,2.7285 -0.2687,0.9612 -0.7752,1.6743 -1.5193,2.1394 -0.6098,0.3928 -1.2247,0.5891 -1.8449,0.5891 -0.6511,-0.031 -1.2609,-0.2222 -1.8293,-0.5736 -0.8475,-0.5167 -1.3901,-1.4004 -1.6278,-2.651 -0.083,-0.4651 -0.1344,-1.0128 -0.155,-1.6433 v -1.5503 c 0,-1.9533 -0.6512,-3.5346 -1.9534,-4.7439 -1.3126,-1.2195 -3.0438,-1.8293 -5.1935,-1.8293 -2.2221,0 -4.0101,0.7596 -5.364,2.2789 -1.1886,1.3333 -1.7828,2.8474 -1.7828,4.5424 0,0.155 0.01,0.3772 0.031,0.6666 0.093,1.4469 -0.078,2.6252 -0.5116,3.5347 -0.5891,1.2402 -1.633,1.8965 -3.1316,1.9688 -0.6512,-0.021 -1.2661,-0.217 -1.8449,-0.5891 -0.7441,-0.4651 -1.2505,-1.1679 -1.5193,-2.1084 -0.1757,-0.6408 -0.2635,-1.5606 -0.2635,-2.7595 0.021,-3.8964 0.031,-5.9169 0.031,-6.0616 0,-0.3411 0.052,-0.5995 0.155,-0.7752 0.1447,-0.248 0.4134,-0.3721 0.8062,-0.3721 h 0.1085 c 0.072,0 0.1395,-0.01 0.2015,-0.015 0.1757,-0.031 0.2636,-0.078 0.2636,-0.1395 0,-0.1033 -0.098,-0.155 -0.2946,-0.155 h -4.1548 c -0.1963,0 -0.2945,0.052 -0.2945,0.155 0,0.1034 0.1912,0.155 0.5736,0.155 0.3927,0 0.6615,0.1292 0.8061,0.3876 0.1034,0.1861 0.1551,0.5013 0.1551,0.9457 v 5.8291 c -0.01,0.6615 -0.057,1.2506 -0.1396,1.7673 -0.1033,0.6822 -0.2687,1.2661 -0.496,1.7519 -0.5788,1.2505 -1.5658,1.912 -2.9611,1.9843 -1.6743,-0.1653 -2.7595,-0.987 -3.2556,-2.4649 -0.1861,-0.5478 -0.2997,-1.2196 -0.3411,-2.0154 -0.021,-0.2997 -0.031,-0.6408 -0.031,-1.0232 v -0.9457 c 0,-2.0257 -0.6976,-3.638 -2.0929,-4.8369 -1.3229,-1.1369 -3.0024,-1.7053 -5.0384,-1.7053 z m 353.0482,0.015 c -2.0464,0 -3.7569,0.6563 -5.1315,1.9689 -1.3642,1.3022 -2.0464,2.9197 -2.0464,4.8524 0,1.695 0.5116,3.1781 1.5348,4.4493 1.2816,1.602 3.1316,2.403 5.5501,2.403 2.2737,0 4.1341,-0.8217 5.581,-2.465 0,1.3126 -0.1292,2.4081 -0.3876,3.2866 -0.3824,1.2506 -1.0387,2.1343 -1.9688,2.651 0.4444,0.2067 1.1213,-0.1395 2.0309,-1.0387 0.9095,-0.8991 1.4727,-1.7828 1.6898,-2.651 0.1447,-0.6097 0.2377,-1.3384 0.279,-2.1859 0.01,-0.3204 0.016,-0.6924 0.016,-1.1162 v -1.1007 c 0,-2.4288 -0.1705,-4.1238 -0.5116,-5.085 -0.5891,-1.6123 -1.8603,-2.7905 -3.8137,-3.5346 -0.8888,-0.2894 -1.8293,-0.4341 -2.8215,-0.4341 z m -353.1413,0.6201 c 1.478,0 2.7234,0.5426 3.7362,1.6278 1.1059,1.1989 1.6589,2.7957 1.6589,4.7904 0,1.9431 -0.491,3.4417 -1.4728,4.4959 -0.8785,0.9405 -2.0206,1.4107 -3.4262,1.4107 -1.6536,0 -3.0127,-0.5994 -4.0772,-1.7983 -1.0852,-1.2299 -1.6278,-2.8319 -1.6278,-4.8059 0,-1.8294 0.4806,-3.2505 1.4417,-4.2633 0.9302,-0.9715 2.1859,-1.4573 3.7672,-1.4573 z m 149.3708,0 c 1.5193,0 2.7905,0.5736 3.8137,1.7208 1.0645,1.1989 1.5968,2.7647 1.5968,4.6974 0,1.9534 -0.4961,3.4572 -1.4883,4.5114 -0.8785,0.9301 -2.0154,1.3952 -3.4106,1.3952 -1.5813,0 -2.9042,-0.5529 -3.9688,-1.6588 -1.1575,-1.2092 -1.7363,-2.8577 -1.7363,-4.9454 0,-1.8294 0.4806,-3.2505 1.4418,-4.2633 0.9198,-0.9715 2.1704,-1.4573 3.7517,-1.4573 z m -118.985,0.031 c 1.5813,0 2.868,0.5736 3.8602,1.7208 1.0232,1.1679 1.5348,2.7234 1.5348,4.6664 0,1.6433 -0.3411,2.9714 -1.0232,3.9843 -0.5064,0.7648 -1.1265,1.266 -1.8603,1.5038 -0.7235,0.2893 -1.3126,0.434 -1.7674,0.434 -1.7363,0 -3.1419,-0.5632 -4.2168,-1.6898 -1.1369,-1.1885 -1.7053,-2.8318 -1.7053,-4.9299 0,-1.8397 0.4858,-3.2608 1.4573,-4.2633 0.9198,-0.9509 2.1601,-1.4263 3.7207,-1.4263 z m 306.741,0 c 1.4779,0 2.713,0.5064 3.7052,1.5193 1.1265,1.1576 1.6898,2.7802 1.6898,4.8679 0,2.2014 -0.5891,3.8137 -1.7674,4.8369 -0.4444,0.3928 -0.956,0.6822 -1.5348,0.8682 -0.4444,0.1447 -0.8888,0.217 -1.3332,0.217 -1.726,0 -3.1264,-0.5529 -4.2013,-1.6588 -1.1575,-1.1989 -1.7363,-2.8525 -1.7363,-4.9609 0,-1.8397 0.4909,-3.2608 1.4728,-4.2633 0.9198,-0.9509 2.1549,-1.4263 3.7052,-1.4263 z m 15.9215,0.015 c 1.4882,0 2.7336,0.5375 3.7362,1.6123 1.1058,1.1782 1.6588,2.7647 1.6588,4.7594 0,2.0154 -0.5116,3.5399 -1.5348,4.5734 -0.3721,0.3824 -0.8113,0.6873 -1.3178,0.9147 -0.3514,0.1653 -0.7234,0.2842 -1.1162,0.3565 -0.4754,0.041 -0.7855,0.062 -0.9301,0.062 -1.6847,0 -3.049,-0.5891 -4.0928,-1.7673 -1.0749,-1.1989 -1.6123,-2.8112 -1.6123,-4.8369 0,-1.8397 0.4857,-3.2608 1.4573,-4.2633 0.9198,-0.9405 2.1704,-1.4108 3.7517,-1.4108 z m -182.9811,0.062 h 7.7359 c 1.478,0 2.6562,0.615 3.5347,1.8449 0.7855,1.1162 1.1782,2.4856 1.1782,4.1083 0,1.6949 -0.4289,3.1315 -1.2867,4.3098 -0.9509,1.3229 -2.2428,1.9843 -3.8757,1.9843 h -11.1466 v -7.2708 c 0.1343,-1.3229 0.5012,-2.4392 1.1007,-3.3487 0.7028,-1.0852 1.6226,-1.6278 2.7595,-1.6278 z m 120.9228,0.4496 c 1.6847,0 3.204,0.4186 4.5579,1.2558 1.4676,0.9095 2.5011,2.1807 3.1006,3.8137 -0.7752,0.124 -1.9017,1.0542 -3.3797,2.7905 -1.3642,1.5916 -2.2634,2.899 -2.6975,3.9222 h -3.023 c -0.4445,-1.0232 -1.3591,-2.3306 -2.7441,-3.9222 -1.4986,-1.7363 -2.6355,-2.6665 -3.4106,-2.7905 0.6098,-1.6537 1.6588,-2.9352 3.1471,-3.8448 1.3332,-0.8164 2.8164,-1.2247 4.4493,-1.2247 z m -277.3474,13.7356 c -0.3824,0 -0.7028,0.1344 -0.9612,0.4031 -0.2687,0.2584 -0.403,0.5788 -0.403,0.9612 0,0.3824 0.1343,0.7079 0.403,0.9767 0.2584,0.2583 0.5788,0.3875 0.9612,0.3875 0.3824,0 0.7028,-0.1292 0.9612,-0.3875 0.2687,-0.2688 0.4031,-0.5943 0.4031,-0.9767 0,-0.3824 -0.1344,-0.7028 -0.4031,-0.9612 -0.2584,-0.2687 -0.5788,-0.4031 -0.9612,-0.4031 z m 3.3021,0 c -0.3824,0 -0.7028,0.1344 -0.9611,0.4031 -0.2688,0.2584 -0.4031,0.5788 -0.4031,0.9612 0,0.3824 0.1343,0.7079 0.4031,0.9767 0.2583,0.2583 0.5787,0.3875 0.9611,0.3875 0.3825,0 0.7028,-0.1292 0.9612,-0.3875 0.2687,-0.2688 0.4031,-0.5943 0.4031,-0.9767 0,-0.3824 -0.1344,-0.7028 -0.4031,-0.9612 -0.2584,-0.2687 -0.5787,-0.4031 -0.9612,-0.4031 z m 290.4319,0 c -0.3824,0 -0.7028,0.1344 -0.9612,0.4031 -0.2687,0.2584 -0.403,0.5788 -0.403,0.9612 0,0.3824 0.1343,0.7079 0.403,0.9767 0.2584,0.2583 0.5788,0.3875 0.9612,0.3875 0.3824,0 0.7028,-0.1292 0.9612,-0.3875 0.2687,-0.2688 0.4031,-0.5943 0.4031,-0.9767 0,-0.3824 -0.1344,-0.7028 -0.4031,-0.9612 -0.2584,-0.2687 -0.5788,-0.4031 -0.9612,-0.4031 z"
       transform="translate(-414.15638,778.09921)" /></g></svg>
