<?xml version="1.0" encoding="UTF-8" standalone="no"?>
<!-- Created with Inkscape (http://www.inkscape.org/) -->

<svg
   width="202.94885mm"
   height="26.680542mm"
   viewBox="0 0 202.94886 26.680542"
   version="1.1"
   id="svg1"
   xml:space="preserve"
   xmlns="http://www.w3.org/2000/svg"
   xmlns:svg="http://www.w3.org/2000/svg"><defs
     id="defs1" /><g
     id="layer1"
     transform="translate(1810.1331,-2091.5898)"><path
       id="text56"
       style="font-style:normal;font-variant:normal;font-weight:300;font-stretch:normal;font-size:31.75px;line-height:31.75px;font-family:Muslimah;-inkscape-font-specification:'Muslimah Light';text-align:center;text-decoration-color:#000000;letter-spacing:0px;writing-mode:lr-tb;direction:rtl;text-anchor:middle;white-space:pre;inline-size:448.465;fill:#ffffff;stroke-width:3.59312;stroke-dashoffset:8"
       d="m -1721.1802,2096.4894 c -0.1766,0.3008 -0.4872,0.4904 -0.9319,0.5689 -0.1569,0.033 -0.3466,0.049 -0.5689,0.049 h -2.1678 c -0.3727,0 -0.6932,0.1275 -0.9613,0.3826 -0.2747,0.2616 -0.412,0.5754 -0.412,0.9417 0,0.3073 0.082,0.5787 0.2452,0.8141 0.1766,0.2485 0.4088,0.4054 0.6965,0.4708 -0.3793,0.1178 -0.6474,0.3401 -0.8044,0.667 l 0.2943,-0.2157 c 0.1177,-0.079 0.2224,-0.1439 0.3139,-0.1962 0.2354,-0.1308 0.461,-0.1962 0.6768,-0.1962 h 3.7373 v -0.1766 h -3.9335 c -0.2746,-0.059 -0.4937,-0.2125 -0.6572,-0.461 -0.1504,-0.2289 -0.2255,-0.4937 -0.2255,-0.7946 0,-0.1831 0.049,-0.3563 0.1471,-0.5198 0.1177,-0.1962 0.2746,-0.2943 0.4708,-0.2943 0.2028,-0.01 0.4774,-0.01 0.824,-0.01 h 0.461 l 0.461,0.01 c 0.7324,0 1.1967,-0.026 1.3929,-0.078 0.2551,-0.065 0.4708,-0.2192 0.6474,-0.4611 0.052,-0.079 0.1112,-0.1733 0.1766,-0.2845 l 0.029,-0.069 0.029,-0.049 c 0.026,-0.046 0.046,-0.078 0.059,-0.098 z m -51.5075,1.0005 c -0.1177,0 -0.1766,0.029 -0.1766,0.088 0,0.039 0.088,0.078 0.2649,0.1177 l 0.1079,0.02 0.098,0.029 c 0.072,0.013 0.1177,0.029 0.1373,0.049 0.1177,0.1046 0.1766,0.4381 0.1766,1.0005 v 6.9841 c 0,1.5825 0.1504,2.7007 0.4512,3.3547 0.4708,1.0332 1.4321,1.6086 2.8839,1.7264 1.3732,-0.1047 2.3051,-0.6245 2.7955,-1.5597 0.5101,0.9352 1.4485,1.455 2.8152,1.5597 h 3.9433 c 0.2093,0 0.4381,-0.059 0.6866,-0.1766 0.092,-0.046 0.1962,-0.1014 0.3139,-0.1667 l 0.3041,-0.1963 c 0.4185,-0.268 0.8207,-0.6343 1.2065,-1.0986 0.4185,-0.5035 0.6998,-0.9874 0.8436,-1.4517 0.1439,-0.4709 0.2158,-0.9384 0.2158,-1.4027 0,-1.2686 -0.4349,-2.2888 -1.3046,-3.0605 -0.837,-0.7389 -1.8507,-1.1084 -3.0408,-1.1084 -0.569,0 -1.0758,0.1537 -1.5205,0.461 -0.51,0.3597 -0.7651,0.8273 -0.7651,1.4027 0,0.8633 0.5624,1.5891 1.6872,2.1777 -0.6082,0.2158 -1.1051,0.5199 -1.4909,0.9122 -0.4513,0.4643 -0.6769,0.9842 -0.6769,1.5596 0,0.6998 0.3073,1.2556 0.922,1.6676 -0.3923,0.026 -0.8337,0.039 -1.3242,0.039 -0.412,-0.013 -0.801,-0.1373 -1.1672,-0.3727 -0.4709,-0.2943 -0.7913,-0.739 -0.9613,-1.3341 -0.1112,-0.4054 -0.1668,-0.9874 -0.1668,-1.746 0.013,-2.4653 0.02,-3.7437 0.02,-3.8353 0,-0.2158 0.033,-0.3793 0.098,-0.4905 0.092,-0.1569 0.2616,-0.2354 0.5101,-0.2354 h 0.069 c 0.046,0 0.088,0 0.1275,-0.01 0.1111,-0.02 0.1668,-0.049 0.1668,-0.088 0,-0.065 -0.062,-0.098 -0.1864,-0.098 h -2.6289 c -0.1243,0 -0.1863,0.033 -0.1863,0.098 0,0.065 0.121,0.098 0.3629,0.098 0.2485,0 0.4185,0.082 0.51,0.2452 0.065,0.1178 0.098,0.3172 0.098,0.5984 v 3.6882 c -0.01,0.4186 -0.036,0.7913 -0.088,1.1182 -0.065,0.4317 -0.1701,0.8011 -0.3139,1.1085 -0.3662,0.7912 -0.9908,1.2098 -1.8735,1.2555 v 0.01 c -0.9286,-0.065 -1.5695,-0.4806 -1.9226,-1.2457 -0.1439,-0.3008 -0.2453,-0.6638 -0.3041,-1.0888 -0.039,-0.3074 -0.059,-0.6801 -0.059,-1.1183 0,-0.5558 0,-1.9324 0.01,-4.1296 0.01,-2.1906 0.01,-3.7046 0.01,-4.5416 0,-0.2354 0.056,-0.3989 0.1668,-0.4904 0.1242,-0.098 0.3532,-0.1472 0.6867,-0.1472 0.026,0 0.049,-0.01 0.069,-0.029 0.02,-0.02 0.029,-0.039 0.029,-0.059 0,-0.059 -0.062,-0.088 -0.1864,-0.088 z m 6.7486,1.7166 c -0.2419,0 -0.4479,0.085 -0.6179,0.255 -0.1635,0.17 -0.2452,0.3728 -0.2452,0.6082 0,0.2419 0.082,0.4447 0.2452,0.6081 0.17,0.1701 0.376,0.2551 0.6179,0.2551 0.242,0 0.4447,-0.085 0.6082,-0.2551 0.17,-0.1634 0.2551,-0.3662 0.2551,-0.6081 0,-0.2354 -0.085,-0.4382 -0.2551,-0.6082 -0.17,-0.17 -0.3727,-0.255 -0.6082,-0.255 z m 59.9237,0 c -0.2354,0 -0.4381,0.085 -0.6082,0.255 -0.17,0.17 -0.255,0.3728 -0.255,0.6082 0,0.2419 0.085,0.4479 0.255,0.6179 0.1701,0.1635 0.3728,0.2453 0.6082,0.2453 0.242,0 0.4447,-0.082 0.6082,-0.2453 0.17,-0.17 0.2551,-0.376 0.2551,-0.6179 0,-0.242 -0.085,-0.4447 -0.2551,-0.6082 -0.1635,-0.17 -0.3662,-0.255 -0.6082,-0.255 z m 2.109,0 c -0.242,0 -0.4447,0.085 -0.6082,0.255 -0.17,0.1635 -0.255,0.3662 -0.255,0.6082 0,0.2419 0.085,0.4479 0.255,0.6179 0.1635,0.1635 0.3662,0.2453 0.6082,0.2453 0.2354,0 0.4381,-0.082 0.6081,-0.2453 0.17,-0.17 0.2551,-0.376 0.2551,-0.6179 0,-0.2354 -0.085,-0.4382 -0.2551,-0.6082 -0.17,-0.17 -0.3727,-0.255 -0.6081,-0.255 z m 29.0251,0 c -0.2355,0 -0.4382,0.085 -0.6082,0.255 -0.17,0.17 -0.2551,0.3728 -0.2551,0.6082 0,0.2419 0.085,0.4479 0.2551,0.6179 0.17,0.1635 0.3727,0.2453 0.6082,0.2453 0.2419,0 0.4446,-0.082 0.6081,-0.2453 0.17,-0.17 0.2551,-0.376 0.2551,-0.6179 0,-0.242 -0.085,-0.4447 -0.2551,-0.6082 -0.1635,-0.17 -0.3662,-0.255 -0.6081,-0.255 z m 2.1089,0 c -0.242,0 -0.4447,0.085 -0.6081,0.255 -0.1701,0.1635 -0.2551,0.3662 -0.2551,0.6082 0,0.2419 0.085,0.4479 0.2551,0.6179 0.1634,0.1635 0.3661,0.2453 0.6081,0.2453 0.2354,0 0.4382,-0.082 0.6082,-0.2453 0.17,-0.17 0.255,-0.376 0.255,-0.6179 0,-0.2354 -0.085,-0.4382 -0.255,-0.6082 -0.17,-0.17 -0.3728,-0.255 -0.6082,-0.255 z m 22.7767,0 c -0.2354,0 -0.4381,0.085 -0.6081,0.255 -0.1701,0.17 -0.2551,0.3728 -0.2551,0.6082 0,0.2419 0.085,0.4479 0.2551,0.6179 0.17,0.1635 0.3727,0.2453 0.6081,0.2453 0.2419,0 0.4447,-0.082 0.6082,-0.2453 0.17,-0.17 0.255,-0.376 0.255,-0.6179 0,-0.242 -0.085,-0.4447 -0.255,-0.6082 -0.1635,-0.17 -0.3663,-0.255 -0.6082,-0.255 z m 2.109,0 c -0.242,0 -0.4447,0.085 -0.6082,0.255 -0.17,0.1635 -0.2551,0.3662 -0.2551,0.6082 0,0.2419 0.085,0.4479 0.2551,0.6179 0.1635,0.1635 0.3662,0.2453 0.6082,0.2453 0.2353,0 0.4381,-0.082 0.6082,-0.2453 0.17,-0.17 0.2549,-0.376 0.2549,-0.6179 0,-0.2354 -0.085,-0.4382 -0.2549,-0.6082 -0.1701,-0.17 -0.3729,-0.255 -0.6082,-0.255 z m -99.1895,0.01 c -0.242,0 -0.4479,0.085 -0.6179,0.255 -0.1635,0.17 -0.2453,0.3728 -0.2453,0.6082 0,0.242 0.082,0.4447 0.2453,0.6081 0.17,0.1701 0.3759,0.2551 0.6179,0.2551 0.2419,0 0.4447,-0.085 0.6082,-0.2551 0.17,-0.1634 0.255,-0.3661 0.255,-0.6081 0,-0.2354 -0.085,-0.4382 -0.255,-0.6082 -0.1701,-0.17 -0.3728,-0.255 -0.6082,-0.255 z m 22.1391,1.128 c -0.052,0 -0.095,0.013 -0.1275,0.039 -0.033,0.026 -0.049,0.052 -0.049,0.079 0,0.039 0.03,0.059 0.088,0.059 0.242,0.01 0.412,0.052 0.5101,0.1373 0.1112,0.091 0.17,0.2583 0.1765,0.5003 l 0.01,8.6614 c -0.013,0.3139 -0.055,0.5264 -0.1274,0.6376 -0.098,0.1373 -0.2878,0.2093 -0.569,0.2158 -0.059,0.01 -0.088,0.029 -0.088,0.069 0,0.026 0.016,0.052 0.049,0.079 0.033,0.026 0.075,0.039 0.1275,0.039 h 2.4425 c 0.052,0 0.095,-0.013 0.1275,-0.039 0.033,-0.026 0.049,-0.052 0.049,-0.079 0,-0.039 -0.029,-0.062 -0.088,-0.069 -0.3596,-0.01 -0.5885,-0.062 -0.6866,-0.1668 -0.1243,-0.1373 -0.1863,-0.4577 -0.1863,-0.9613 -0.013,-5.1857 -0.01,-7.9813 0.02,-8.3867 0.013,-0.2747 0.098,-0.4545 0.255,-0.5395 0.1046,-0.059 0.3041,-0.092 0.5983,-0.098 0.059,0 0.088,-0.02 0.088,-0.059 0,-0.026 -0.016,-0.052 -0.049,-0.079 -0.033,-0.026 -0.075,-0.039 -0.1275,-0.039 z m 37.8827,0.255 c -0.4251,0.7325 -1.1738,1.2066 -2.2463,1.4223 -0.3989,0.079 -0.8664,0.1276 -1.4027,0.1472 -0.1962,0.01 -0.425,0.01 -0.6866,0.01 h -0.6474 c -0.2158,0 -0.4937,-0.01 -0.8338,-0.02 l -0.4512,-0.01 -0.4708,-0.02 c -0.7913,-0.026 -1.442,-0.023 -1.952,0.01 -1.5434,0.085 -2.6256,0.4479 -3.2469,1.0888 -0.4643,0.4839 -0.6964,0.9874 -0.6964,1.5106 0,0.3597 0.1406,0.7749 0.4218,1.2457 0.3793,0.5428 0.9482,0.9254 1.7067,1.1477 0.5755,0.1635 1.3145,0.2452 2.2169,0.2452 3.7471,0 7.88,-0.039 12.3987,-0.1177 0.1635,0 0.3204,0.01 0.4708,0.02 0.1962,0.01 0.3826,0.02 0.5591,0.039 0.4578,0.046 0.8567,0.1177 1.1968,0.2158 0.9351,0.2616 1.4027,0.6997 1.4027,1.3144 0,0.3073 -0.17,0.6245 -0.5101,0.9515 -0.3989,0.3858 -0.873,0.5918 -1.4223,0.6179 h -18.4411 v 0.4415 h 18.6765 c 0.5231,-0.059 0.9286,-0.1602 1.2163,-0.3041 0.2746,-0.1439 0.5199,-0.3695 0.7357,-0.6768 0.5428,0.5623 1.3471,0.8893 2.413,0.9809 1.3733,-0.1047 2.3052,-0.6245 2.7956,-1.5597 0.5101,0.9352 1.4485,1.455 2.8152,1.5597 h 10.5056 c 0.7781,0 1.5073,-0.2093 2.1873,-0.6278 0.6344,-0.399 1.1445,-0.9319 1.5303,-1.5989 0.1896,0.6866 0.5558,1.2229 1.0986,1.6087 0.4905,0.3596 1.0856,0.5656 1.7853,0.618 h 5.1595 v -0.02 c 1.3079,-0.059 2.3673,-0.5396 3.1782,-1.442 0.7585,-0.8501 1.1378,-1.8703 1.1378,-3.0604 0,-1.2818 -0.4414,-2.3019 -1.3242,-3.0605 -0.837,-0.7193 -1.8997,-1.079 -3.188,-1.079 -1.4452,0 -2.583,0.4741 -3.4135,1.4223 -0.2877,0.327 -0.5264,0.7031 -0.7161,1.1281 -0.072,0.1569 -0.1373,0.3171 -0.1961,0.4806 -0.039,0.1177 -0.072,0.2355 -0.098,0.3532 -0.078,0.3139 -0.1176,0.6278 -0.1176,0.9417 0,0.7716 0.1831,1.4877 0.5493,2.1481 0.4185,0.7717 1.0234,1.3537 1.8146,1.746 h -2.7857 c -1.0398,-0.046 -1.7199,-0.5558 -2.0403,-1.5302 -0.1178,-0.3531 -0.1929,-0.7847 -0.2256,-1.2948 -0.013,-0.1896 -0.02,-0.4054 -0.02,-0.6474 v -0.5787 c 0,-1.151 -0.3794,-2.1057 -1.1379,-2.8642 -0.7128,-0.7129 -1.6316,-1.1314 -2.7564,-1.2556 -0.2419,-0.013 -0.4185,-0.02 -0.5296,-0.02 h -4.6201 c -0.4316,0 -0.8731,0.1471 -1.3242,0.4414 -0.3467,0.2158 -0.7129,0.5297 -1.0986,0.9416 0,-0.5035 0.036,-0.8272 0.1078,-0.9711 0.085,-0.17 0.2812,-0.255 0.5886,-0.255 0.065,-0.01 0.098,-0.026 0.098,-0.059 0,-0.078 -0.059,-0.1177 -0.1766,-0.1177 h -2.4523 c -0.046,0 -0.088,0.013 -0.1275,0.039 -0.033,0.026 -0.049,0.052 -0.049,0.078 0,0.033 0.026,0.052 0.078,0.059 0.2877,0 0.4905,0.033 0.6082,0.098 0.1504,0.098 0.2354,0.2812 0.255,0.5493 0.02,0.3401 0.029,1.71 0.029,4.11 0,1.7329 0,2.825 -0.01,3.2762 h -2.3051 c -0.412,-0.013 -0.801,-0.1373 -1.1673,-0.3727 -0.4708,-0.2943 -0.7913,-0.739 -0.9613,-1.3341 -0.1111,-0.4054 -0.1667,-0.9874 -0.1667,-1.746 0.013,-2.4653 0.02,-3.7437 0.02,-3.8353 0,-0.2158 0.033,-0.3793 0.098,-0.4905 0.092,-0.1569 0.2616,-0.2354 0.5101,-0.2354 h 0.069 c 0.046,0 0.088,0 0.1274,-0.01 0.1112,-0.02 0.1668,-0.049 0.1668,-0.088 0,-0.065 -0.062,-0.098 -0.1864,-0.098 h -2.6288 c -0.1242,0 -0.1863,0.033 -0.1863,0.098 0,0.065 0.1209,0.098 0.3629,0.098 0.2485,0 0.4185,0.082 0.51,0.2452 0.065,0.1178 0.098,0.3172 0.098,0.5984 v 3.6882 c -0.01,0.4186 -0.036,0.7913 -0.088,1.1182 -0.065,0.4317 -0.17,0.8011 -0.3139,1.1085 -0.3661,0.7912 -0.9907,1.2098 -1.8735,1.2555 -0.5558,-0.039 -1.0201,-0.219 -1.3928,-0.5394 -0.3794,-0.3139 -0.6311,-0.7357 -0.7554,-1.2654 -0.1961,-0.8371 -0.7651,-1.4321 -1.7068,-1.7853 -0.3727,-0.1373 -0.801,-0.2387 -1.285,-0.304 -0.3792,-0.046 -0.7945,-0.069 -1.2457,-0.069 -1.1902,0 -2.9362,0.01 -5.238,0.02 l -2.5799,0.02 -2.5601,0.01 h -1.7068 c -0.6277,-0.01 -1.1934,-0.013 -1.6969,-0.02 -0.6474,-0.079 -1.2,-0.2583 -1.6578,-0.5395 -0.5166,-0.3204 -0.7749,-0.703 -0.7749,-1.1476 0,-0.3205 0.1308,-0.6278 0.3923,-0.9221 0.2617,-0.3008 0.5854,-0.4905 0.9711,-0.569 0.4905,-0.098 1.03,-0.1471 1.6185,-0.1471 0.3467,0 0.8633,0.023 1.5499,0.069 l 0.7749,0.049 c 0.2812,0.013 0.5362,0.02 0.7651,0.02 h 0.4905 l 0.4806,0.01 c 0.3793,0.01 0.6866,0.01 0.9221,0 0.6866,-0.02 1.2719,-0.091 1.7558,-0.2157 0.667,-0.1701 1.2392,-0.5657 1.7166,-1.1869 0.1635,-0.2093 0.3204,-0.4545 0.4708,-0.7357 l 0.1569,-0.3139 0.069,-0.1374 z m -58.1385,1.5891 c -0.1438,0 -0.2158,0.033 -0.2158,0.098 0,0.046 0.088,0.078 0.2649,0.098 l 0.1079,0.01 0.1079,0.01 c 0.079,0.01 0.1308,0.013 0.1569,0.02 0.3074,0.085 0.4611,0.3204 0.4611,0.7062 l 0.039,5.5421 c 0,2.7465 -0.9351,4.1199 -2.8054,4.1199 -1.9553,0 -2.9329,-1.3046 -2.9329,-3.9139 0,-0.837 0,-1.4877 0.01,-1.952 0.01,-0.4643 0.01,-0.788 0.01,-0.9711 0.013,-0.3335 0.069,-0.5624 0.1667,-0.6866 0.1112,-0.1373 0.3303,-0.206 0.6573,-0.206 h 0.02 l 0.039,-0.01 c 0.026,-0.013 0.039,-0.033 0.039,-0.059 0,-0.079 -0.069,-0.1177 -0.2059,-0.1177 h -2.8545 c -0.033,0.01 -0.055,0.01 -0.069,0.01 -0.046,0.02 -0.069,0.056 -0.069,0.1079 0,0.039 0.056,0.065 0.1667,0.078 0.033,0.01 0.075,0.01 0.1276,0.01 h 0.1079 c 0.3073,0 0.5133,0.1144 0.6179,0.3434 0.072,0.17 0.1079,0.4904 0.1079,0.9612 v 2.5504 c 0,2.8969 1.3341,4.3454 4.0021,4.3454 0.2682,0 0.5559,-0.039 0.8633,-0.1177 0.3727,-0.091 0.716,-0.2289 1.0299,-0.412 0.8305,-0.4839 1.357,-1.2131 1.5793,-2.1874 0.026,-0.1308 0.056,-0.2845 0.088,-0.4611 l 0.069,-0.461 c 0.5297,0.7194 1.3864,1.1248 2.57,1.2164 0.6735,-0.052 1.2588,-0.2518 1.7558,-0.5984 0.5297,-0.3727 0.8959,-0.8828 1.0986,-1.5302 0.3531,0.6539 0.8632,1.1706 1.5303,1.5498 0.6931,0.3859 1.4811,0.5788 2.3639,0.5788 1.3014,0 2.3869,-0.4186 3.2567,-1.2556 0.8959,-0.8501 1.3438,-1.9324 1.3438,-3.2468 -0.039,-1.249 -0.4512,-2.2463 -1.2359,-2.9918 -0.8175,-0.7782 -1.9128,-1.1673 -3.2861,-1.1673 -1.3536,0 -2.4621,0.448 -3.3253,1.3439 -0.8043,0.8305 -1.2065,1.8212 -1.2065,2.9721 v 0.4709 c 0,0.1831 0,0.3466 -0.01,0.4904 -0.013,0.3793 -0.049,0.7063 -0.1079,0.981 -0.1569,0.7454 -0.4937,1.2784 -1.0103,1.5988 -0.3532,0.2223 -0.7422,0.3433 -1.1673,0.3629 -0.9024,-0.046 -1.5368,-0.4545 -1.903,-1.2261 -0.255,-0.5362 -0.3825,-1.2785 -0.3825,-2.2267 0,-1.2621 0.01,-2.2855 0.02,-3.0702 0,-0.1373 0,-0.2649 0.01,-0.3825 v -0.2551 l 0.01,-0.088 v -0.1373 c 0,-0.4185 0.1929,-0.6278 0.5788,-0.6278 0.2419,0 0.3629,-0.033 0.3629,-0.098 0,-0.065 -0.059,-0.098 -0.1766,-0.098 -0.667,0 -1.2751,0 -1.8245,-0.01 h -0.2942 l -0.1177,-0.01 z m 24.9936,0.02 c -0.4054,0 -0.7749,0.036 -1.1085,0.1079 v 0.4218 c 0.3139,-0.085 0.6344,-0.1275 0.9613,-0.1275 1.0202,0 1.8572,0.3793 2.5112,1.1379 0.6604,0.7585 0.9907,1.7394 0.9907,2.9427 0,1.0201 -0.2419,1.867 -0.7258,2.5406 -0.5625,0.7847 -1.3603,1.177 -2.3935,1.177 -0.4773,0 -0.9253,-0.085 -1.3439,-0.255 v 0.6081 c 0.3336,0.059 0.6638,0.088 0.9908,0.088 0.8436,0 1.6185,-0.1897 2.3247,-0.569 0.7325,-0.3858 1.3014,-0.9286 1.7068,-1.6283 0.1897,0.6736 0.5591,1.2033 1.1085,1.5891 0.5035,0.3596 1.0986,0.5656 1.7852,0.618 1.3733,-0.1047 2.3051,-0.6245 2.7956,-1.5597 0.5101,0.9352 1.4485,1.455 2.8152,1.5597 1.5172,-0.1243 2.5013,-0.7488 2.9526,-1.8736 0.1765,-0.4447 0.2909,-1.0103 0.3433,-1.697 0.02,-0.2615 0.033,-0.5721 0.039,-0.9318 v -3.3253 c 0,-0.3335 0.1308,-0.533 0.3924,-0.5983 0.039,-0.013 0.088,-0.023 0.1471,-0.03 l 0.059,-0.01 0.069,-0.01 c 0.079,-0.013 0.1177,-0.039 0.1177,-0.079 0,-0.065 -0.062,-0.098 -0.1863,-0.098 -0.2813,0 -0.7063,0 -1.2752,0.01 l -1.2948,0.01 c -0.039,0.02 -0.059,0.046 -0.059,0.078 0,0.046 0.016,0.072 0.049,0.079 0.039,0.013 0.1438,0.02 0.3139,0.02 0.2484,0 0.4217,0.091 0.5198,0.2747 0.065,0.1242 0.098,0.3106 0.098,0.5591 v 3.7274 c 0,0.7455 -0.056,1.321 -0.1668,1.7264 -0.17,0.6082 -0.4904,1.0594 -0.9613,1.3537 -0.3858,0.2419 -0.7716,0.3662 -1.1574,0.3727 -0.412,-0.013 -0.8011,-0.1373 -1.1673,-0.3727 -0.4708,-0.2943 -0.7912,-0.739 -0.9613,-1.3341 -0.1112,-0.4054 -0.1667,-0.9874 -0.1667,-1.746 0.013,-2.4653 0.02,-3.7437 0.02,-3.8353 0,-0.2158 0.033,-0.3793 0.098,-0.4905 0.091,-0.1569 0.2615,-0.2354 0.5101,-0.2354 h 0.069 c 0.046,0 0.088,0 0.1275,-0.01 0.1112,-0.02 0.1668,-0.049 0.1668,-0.088 0,-0.065 -0.062,-0.098 -0.1864,-0.098 h -2.6289 c -0.1242,0 -0.1863,0.033 -0.1863,0.098 0,0.065 0.121,0.098 0.3629,0.098 0.2485,0 0.4186,0.082 0.5101,0.2452 0.065,0.1178 0.098,0.3172 0.098,0.5984 v 3.6882 c -0.01,0.4186 -0.036,0.7913 -0.088,1.1182 -0.065,0.4317 -0.1701,0.8011 -0.3139,1.1085 -0.3663,0.7912 -0.9908,1.2098 -1.8736,1.2555 -0.4316,-0.02 -0.8207,-0.1406 -1.1673,-0.3629 -0.5101,-0.3139 -0.8436,-0.8174 -1.0005,-1.5106 -0.059,-0.2681 -0.098,-0.5787 -0.1177,-0.9319 l -0.01,-0.4708 v -0.461 c 0.01,-0.065 0.01,-0.1635 0.01,-0.2943 0,-1.1771 -0.3989,-2.158 -1.1967,-2.9427 -0.8371,-0.824 -1.9455,-1.236 -3.3253,-1.236 z m 71.1747,0.3924 c 0.9875,0 1.8016,0.376 2.4425,1.128 0.6474,0.7652 0.971,1.7428 0.971,2.933 0,1.2359 -0.3106,2.1874 -0.9318,2.8544 -0.5558,0.5885 -1.2785,0.8828 -2.1678,0.8828 -0.9875,0 -1.8147,-0.34 -2.4817,-1.0201 -0.7521,-0.7651 -1.1281,-1.818 -1.1281,-3.1585 0,-1.1575 0.3041,-2.0567 0.9123,-2.6975 0.5885,-0.6147 1.3831,-0.9221 2.3836,-0.9221 z m -85.1625,0.02 c 0.9352,0 1.7166,0.3204 2.3444,0.9613 0.7128,0.7325 1.0692,1.7591 1.0692,3.0801 0,1.3928 -0.3727,2.413 -1.1182,3.0604 -0.2812,0.2485 -0.6049,0.4316 -0.9711,0.5493 -0.2812,0.092 -0.5624,0.1373 -0.8436,0.1373 -1.0921,0 -1.9782,-0.3498 -2.6583,-1.0496 -0.7324,-0.7585 -1.0986,-1.8048 -1.0986,-3.1388 0,-1.1641 0.3106,-2.0632 0.9319,-2.6975 0.582,-0.6017 1.3634,-0.9025 2.3443,-0.9025 z m -25.9548,0.01 c 0.072,0 0.1733,0.01 0.3041,0.02 0.9613,0.098 1.7264,0.5625 2.2953,1.3929 0.5166,0.7586 0.7749,1.6479 0.7749,2.6681 0,0.654 -0.1112,1.2458 -0.3335,1.7755 0,-0.5232 -0.17,-0.9842 -0.51,-1.3831 -0.1832,-0.2093 -0.5003,-0.4414 -0.9515,-0.6965 -0.1308,-0.072 -0.3401,-0.183 -0.6278,-0.3335 l -0.3237,-0.1667 -0.3139,-0.1766 c -1.0463,-0.582 -1.5694,-1.1771 -1.5694,-1.7853 0,-0.4381 0.1373,-0.7749 0.4119,-1.0103 0.2289,-0.2027 0.5101,-0.3041 0.8436,-0.3041 z m 94.8833,0.039 h 4.9242 c 0.922,0 1.6642,0.4381 2.2266,1.3144 0.497,0.7782 0.7455,1.6839 0.7455,2.7171 0,1.0724 -0.291,1.9553 -0.873,2.6484 -0.6082,0.7129 -1.4093,1.0692 -2.4032,1.0692 h -7.0429 v -4.6004 c 0,-0.7978 0.2092,-1.504 0.6277,-2.1188 0.4578,-0.6866 1.0561,-1.0299 1.7951,-1.0299 z m -94.9029,3.7569 c 0.6605,0.2942 1.1444,0.5754 1.4518,0.8435 0.4512,0.4055 0.6768,0.8927 0.6768,1.4616 0,0.4446 -0.2191,0.8043 -0.6572,1.079 -0.3859,0.242 -0.8207,0.3629 -1.3046,0.3629 -0.5363,0 -0.9679,-0.134 -1.2949,-0.4022 -0.3531,-0.2812 -0.5297,-0.6702 -0.5297,-1.1672 0,-0.2028 0.052,-0.4545 0.157,-0.7553 0.2289,-0.6147 0.7292,-1.0888 1.5008,-1.4223 z m 49.5653,5.2184 c -0.242,0 -0.4447,0.085 -0.6081,0.255 -0.1701,0.1635 -0.2551,0.3662 -0.2551,0.6082 0,0.242 0.085,0.4479 0.2551,0.618 0.1634,0.1634 0.3661,0.2452 0.6081,0.2452 0.2419,0 0.4446,-0.082 0.6081,-0.2452 0.1701,-0.1701 0.2551,-0.376 0.2551,-0.618 0,-0.242 -0.085,-0.4447 -0.2551,-0.6082 -0.1635,-0.17 -0.3662,-0.255 -0.6081,-0.255 z" /></g></svg>
